<?xml version="1.0" encoding="UTF-8" standalone="no"?>
<svg
   xmlns:dc="http://purl.org/dc/elements/1.1/"
   xmlns:cc="http://creativecommons.org/ns#"
   xmlns:rdf="http://www.w3.org/1999/02/22-rdf-syntax-ns#"
   xmlns:svg="http://www.w3.org/2000/svg"
   xmlns="http://www.w3.org/2000/svg"
   xmlns:sodipodi="http://sodipodi.sourceforge.net/DTD/sodipodi-0.dtd"
   xmlns:inkscape="http://www.inkscape.org/namespaces/inkscape"
   shape-rendering="auto"
   width="609.5"
   text-rendering="auto"
   color-interpolation="auto"
   color-rendering="auto"
   font-size="12"
   image-rendering="auto"
   stroke-miterlimit="10"
   font-style="normal"
   height="333.5"
   font-weight="normal"
   id="svg2"
   version="1.1"
   inkscape:version="0.48.2 r9819"
   sodipodi:docname="GMF_Notation.svg"
   style="font-size:12px;font-style:normal;font-weight:normal;fill:#000000;fill-opacity:1;stroke:#000000;stroke-width:1;stroke-linecap:square;stroke-linejoin:miter;stroke-miterlimit:10;stroke-opacity:1;stroke-dasharray:none;stroke-dashoffset:0;font-family:Dialog">
  <metadata
     id="metadata425">
    <rdf:RDF>
      <cc:Work
         rdf:about="">
        <dc:format>image/svg+xml</dc:format>
        <dc:type
           rdf:resource="http://purl.org/dc/dcmitype/StillImage" />
      </cc:Work>
    </rdf:RDF>
  </metadata>
  <sodipodi:namedview
     pagecolor="#ffffff"
     bordercolor="#666666"
     borderopacity="1"
     objecttolerance="10"
     gridtolerance="10"
     guidetolerance="10"
     inkscape:pageopacity="0"
     inkscape:pageshadow="2"
     inkscape:window-width="1680"
     inkscape:window-height="1028"
     id="namedview423"
     showgrid="false"
     fit-margin-top="0"
     fit-margin-left="0"
     fit-margin-right="0"
     fit-margin-bottom="0"
     inkscape:zoom="1.1629073"
     inkscape:cx="400.33521"
     inkscape:cy="134.5917"
     inkscape:window-x="-8"
     inkscape:window-y="-8"
     inkscape:window-maximized="1"
     inkscape:current-layer="svg2" />
  <!--Generated by the Batik Graphics2D SVG Generator-->
  <defs
     id="genericDefs">
    <defs
       id="defs1">
      <clipPath
         id="clipPath1"
         clipPathUnits="userSpaceOnUse">
        <path
           id="path9"
           d="M 5,5 56,5 56,22 5,22 5,5 z"
           inkscape:connector-curvature="0" />
      </clipPath>
      <clipPath
         id="clipPath2"
         clipPathUnits="userSpaceOnUse">
        <path
           id="path12"
           d="m 56,5 49,0 0,18 -49,0 0,-18 z"
           inkscape:connector-curvature="0" />
      </clipPath>
      <clipPath
         id="clipPath3"
         clipPathUnits="userSpaceOnUse">
        <path
           id="path15"
           d="m 354,40 102,0 0,42 -102,0 0,-42 z"
           inkscape:connector-curvature="0" />
      </clipPath>
      <clipPath
         id="clipPath4"
         clipPathUnits="userSpaceOnUse">
        <path
           id="path18"
           d="m 379,42 51,0 0,18 -51,0 0,-18 z"
           inkscape:connector-curvature="0" />
      </clipPath>
      <clipPath
         id="clipPath5"
         clipPathUnits="userSpaceOnUse">
        <path
           id="path21"
           d="m 356,58 98,0 0,12 -98,0 0,-12 z"
           inkscape:connector-curvature="0" />
      </clipPath>
      <clipPath
         id="clipPath6"
         clipPathUnits="userSpaceOnUse">
        <path
           id="path24"
           d="m 356,68 98,0 0,12 -98,0 0,-12 z"
           inkscape:connector-curvature="0" />
      </clipPath>
      <clipPath
         id="clipPath7"
         clipPathUnits="userSpaceOnUse">
        <path
           id="path27"
           d="m 342,167 126,0 0,70 -126,0 0,-70 z"
           inkscape:connector-curvature="0" />
      </clipPath>
      <clipPath
         id="clipPath8"
         clipPathUnits="userSpaceOnUse">
        <path
           id="path30"
           d="m 388,169 34,0 0,18 -34,0 0,-18 z"
           inkscape:connector-curvature="0" />
      </clipPath>
      <clipPath
         id="clipPath9"
         clipPathUnits="userSpaceOnUse">
        <path
           id="path33"
           d="m 345,188 9,0 0,18 -9,0 0,-18 z"
           inkscape:connector-curvature="0" />
      </clipPath>
      <clipPath
         id="clipPath10"
         clipPathUnits="userSpaceOnUse">
        <path
           id="path36"
           d="m 354,188 100,0 0,18 -100,0 0,-18 z"
           inkscape:connector-curvature="0" />
      </clipPath>
      <clipPath
         id="clipPath11"
         clipPathUnits="userSpaceOnUse">
        <path
           id="path39"
           d="m 345,206 9,0 0,18 -9,0 0,-18 z"
           inkscape:connector-curvature="0" />
      </clipPath>
      <clipPath
         id="clipPath12"
         clipPathUnits="userSpaceOnUse">
        <path
           id="path42"
           d="m 354,206 71,0 0,18 -71,0 0,-18 z"
           inkscape:connector-curvature="0" />
      </clipPath>
      <clipPath
         id="clipPath13"
         clipPathUnits="userSpaceOnUse">
        <path
           id="path45"
           d="m 344,185 122,0 0,40 -122,0 0,-40 z"
           inkscape:connector-curvature="0" />
      </clipPath>
      <clipPath
         id="clipPath14"
         clipPathUnits="userSpaceOnUse">
        <path
           id="path48"
           d="m 344,223 122,0 0,12 -122,0 0,-12 z"
           inkscape:connector-curvature="0" />
      </clipPath>
      <clipPath
         id="clipPath15"
         clipPathUnits="userSpaceOnUse">
        <path
           id="path51"
           d="m 103,333 102,0 0,42 -102,0 0,-42 z"
           inkscape:connector-curvature="0" />
      </clipPath>
      <clipPath
         id="clipPath16"
         clipPathUnits="userSpaceOnUse">
        <path
           id="path54"
           d="m 136,335 35,0 0,18 -35,0 0,-18 z"
           inkscape:connector-curvature="0" />
      </clipPath>
      <clipPath
         id="clipPath17"
         clipPathUnits="userSpaceOnUse">
        <path
           id="path57"
           d="m 105,351 98,0 0,12 -98,0 0,-12 z"
           inkscape:connector-curvature="0" />
      </clipPath>
      <clipPath
         id="clipPath18"
         clipPathUnits="userSpaceOnUse">
        <path
           id="path60"
           d="m 105,361 98,0 0,12 -98,0 0,-12 z"
           inkscape:connector-curvature="0" />
      </clipPath>
      <clipPath
         id="clipPath19"
         clipPathUnits="userSpaceOnUse">
        <path
           id="path63"
           d="m 354,323 102,0 0,52 -102,0 0,-52 z"
           inkscape:connector-curvature="0" />
      </clipPath>
      <clipPath
         id="clipPath20"
         clipPathUnits="userSpaceOnUse">
        <path
           id="path66"
           d="m 377,325 56,0 0,18 -56,0 0,-18 z"
           inkscape:connector-curvature="0" />
      </clipPath>
      <clipPath
         id="clipPath21"
         clipPathUnits="userSpaceOnUse">
        <path
           id="path69"
           d="m 357,344 9,0 0,18 -9,0 0,-18 z"
           inkscape:connector-curvature="0" />
      </clipPath>
      <clipPath
         id="clipPath22"
         clipPathUnits="userSpaceOnUse">
        <path
           id="path72"
           d="m 366,344 79,0 0,18 -79,0 0,-18 z"
           inkscape:connector-curvature="0" />
      </clipPath>
      <clipPath
         id="clipPath23"
         clipPathUnits="userSpaceOnUse">
        <path
           id="path75"
           d="m 356,341 98,0 0,22 -98,0 0,-22 z"
           inkscape:connector-curvature="0" />
      </clipPath>
      <clipPath
         id="clipPath24"
         clipPathUnits="userSpaceOnUse">
        <path
           id="path78"
           d="m 356,361 98,0 0,12 -98,0 0,-12 z"
           inkscape:connector-curvature="0" />
      </clipPath>
      <clipPath
         id="clipPath25"
         clipPathUnits="userSpaceOnUse">
        <path
           id="path81"
           d="m 612,330 102,0 0,42 -102,0 0,-42 z"
           inkscape:connector-curvature="0" />
      </clipPath>
      <clipPath
         id="clipPath26"
         clipPathUnits="userSpaceOnUse">
        <path
           id="path84"
           d="m 646,332 34,0 0,18 -34,0 0,-18 z"
           inkscape:connector-curvature="0" />
      </clipPath>
      <clipPath
         id="clipPath27"
         clipPathUnits="userSpaceOnUse">
        <path
           id="path87"
           d="m 614,348 98,0 0,12 -98,0 0,-12 z"
           inkscape:connector-curvature="0" />
      </clipPath>
      <clipPath
         id="clipPath28"
         clipPathUnits="userSpaceOnUse">
        <path
           id="path90"
           d="m 614,358 98,0 0,12 -98,0 0,-12 z"
           inkscape:connector-curvature="0" />
      </clipPath>
      <clipPath
         id="clipPath29"
         clipPathUnits="userSpaceOnUse">
        <path
           id="path93"
           d="m 612,177 102,0 0,42 -102,0 0,-42 z"
           inkscape:connector-curvature="0" />
      </clipPath>
      <clipPath
         id="clipPath30"
         clipPathUnits="userSpaceOnUse">
        <path
           id="path96"
           d="m 646,179 34,0 0,18 -34,0 0,-18 z"
           inkscape:connector-curvature="0" />
      </clipPath>
      <clipPath
         id="clipPath31"
         clipPathUnits="userSpaceOnUse">
        <path
           id="path99"
           d="m 614,195 98,0 0,12 -98,0 0,-12 z"
           inkscape:connector-curvature="0" />
      </clipPath>
      <clipPath
         id="clipPath32"
         clipPathUnits="userSpaceOnUse">
        <path
           id="path102"
           d="m 614,205 98,0 0,12 -98,0 0,-12 z"
           inkscape:connector-curvature="0" />
      </clipPath>
      <clipPath
         id="clipPath33"
         clipPathUnits="userSpaceOnUse">
        <path
           id="path105"
           d="m -1,-1 802,0 0,1150 -802,0 0,-1150 z"
           inkscape:connector-curvature="0" />
      </clipPath>
      <clipPath
         id="clipPath34"
         clipPathUnits="userSpaceOnUse">
        <path
           id="path108"
           d="m 354,67 41,0 0,116 -41,0 0,-116 z"
           inkscape:connector-curvature="0" />
      </clipPath>
      <clipPath
         id="clipPath35"
         clipPathUnits="userSpaceOnUse">
        <path
           id="path111"
           d="m 367,80 15,0 0,17 -15,0 0,-17 z"
           inkscape:connector-curvature="0" />
      </clipPath>
      <clipPath
         id="clipPath36"
         clipPathUnits="userSpaceOnUse">
        <path
           id="path114"
           d="m 385,222 41,0 0,117 -41,0 0,-117 z"
           inkscape:connector-curvature="0" />
      </clipPath>
      <clipPath
         id="clipPath37"
         clipPathUnits="userSpaceOnUse">
        <path
           id="path117"
           d="m 398,235 15,0 0,17 -15,0 0,-17 z"
           inkscape:connector-curvature="0" />
      </clipPath>
      <clipPath
         id="clipPath38"
         clipPathUnits="userSpaceOnUse">
        <path
           id="path120"
           d="m 172,222 254,0 0,127 -254,0 0,-127 z"
           inkscape:connector-curvature="0" />
      </clipPath>
      <clipPath
         id="clipPath39"
         clipPathUnits="userSpaceOnUse">
        <path
           id="path123"
           d="m 384,222 259,0 0,124 -259,0 0,-124 z"
           inkscape:connector-curvature="0" />
      </clipPath>
      <clipPath
         id="clipPath40"
         clipPathUnits="userSpaceOnUse">
        <path
           id="path126"
           d="m 397,235 15,0 0,17 -15,0 0,-17 z"
           inkscape:connector-curvature="0" />
      </clipPath>
      <clipPath
         id="clipPath41"
         clipPathUnits="userSpaceOnUse">
        <path
           id="path129"
           d="m 453,160 175,0 0,80 -175,0 0,-80 z"
           inkscape:connector-curvature="0" />
      </clipPath>
      <clipPath
         id="clipPath42"
         clipPathUnits="userSpaceOnUse">
        <path
           id="path132"
           d="m 560,209 44,0 0,18 -44,0 0,-18 z"
           inkscape:connector-curvature="0" />
      </clipPath>
      <clipPath
         id="clipPath43"
         clipPathUnits="userSpaceOnUse">
        <path
           id="path135"
           d="m 597,173 7,0 0,18 -7,0 0,-18 z"
           inkscape:connector-curvature="0" />
      </clipPath>
      <clipPath
         id="clipPath44"
         clipPathUnits="userSpaceOnUse">
        <path
           id="path138"
           d="m 466,194 23,0 0,13 -23,0 0,-13 z"
           inkscape:connector-curvature="0" />
      </clipPath>
      <clipPath
         id="clipPath45"
         clipPathUnits="userSpaceOnUse">
        <path
           id="path141"
           d="m 597,193 18,0 0,15 -18,0 0,-15 z"
           inkscape:connector-curvature="0" />
      </clipPath>
      <clipPath
         id="clipPath46"
         clipPathUnits="userSpaceOnUse">
        <path
           id="path144"
           d="m 57,123 301,0 0,226 -301,0 0,-226 z"
           inkscape:connector-curvature="0" />
      </clipPath>
      <clipPath
         id="clipPath47"
         clipPathUnits="userSpaceOnUse">
        <path
           id="path147"
           d="m 132,152 114,0 0,18 -114,0 0,-18 z"
           inkscape:connector-curvature="0" />
      </clipPath>
      <clipPath
         id="clipPath48"
         clipPathUnits="userSpaceOnUse">
        <path
           id="path150"
           d="m 103,307 7,0 0,18 -7,0 0,-18 z"
           inkscape:connector-curvature="0" />
      </clipPath>
      <clipPath
         id="clipPath49"
         clipPathUnits="userSpaceOnUse">
        <path
           id="path153"
           d="m 322,181 23,0 0,13 -23,0 0,-13 z"
           inkscape:connector-curvature="0" />
      </clipPath>
      <clipPath
         id="clipPath50"
         clipPathUnits="userSpaceOnUse">
        <path
           id="path156"
           d="m 112,318 15,0 0,18 -15,0 0,-18 z"
           inkscape:connector-curvature="0" />
      </clipPath>
      <clipPath
         id="clipPath51"
         clipPathUnits="userSpaceOnUse">
        <path
           id="path159"
           d="m 92,176 266,0 0,173 -266,0 0,-173 z"
           inkscape:connector-curvature="0" />
      </clipPath>
      <clipPath
         id="clipPath52"
         clipPathUnits="userSpaceOnUse">
        <path
           id="path162"
           d="m 189,192 108,0 0,18 -108,0 0,-18 z"
           inkscape:connector-curvature="0" />
      </clipPath>
      <clipPath
         id="clipPath53"
         clipPathUnits="userSpaceOnUse">
        <path
           id="path165"
           d="m 151,307 7,0 0,18 -7,0 0,-18 z"
           inkscape:connector-curvature="0" />
      </clipPath>
      <clipPath
         id="clipPath54"
         clipPathUnits="userSpaceOnUse">
        <path
           id="path168"
           d="m 322,210 23,0 0,13 -23,0 0,-13 z"
           inkscape:connector-curvature="0" />
      </clipPath>
      <clipPath
         id="clipPath55"
         clipPathUnits="userSpaceOnUse">
        <path
           id="path171"
           d="m 160,318 15,0 0,18 -15,0 0,-18 z"
           inkscape:connector-curvature="0" />
      </clipPath>
      <clipPath
         id="clipPath56"
         clipPathUnits="userSpaceOnUse">
        <path
           id="path174"
           d="m 441,292 187,0 0,83 -187,0 0,-83 z"
           inkscape:connector-curvature="0" />
      </clipPath>
      <clipPath
         id="clipPath57"
         clipPathUnits="userSpaceOnUse">
        <path
           id="path177"
           d="m 485,310 105,0 0,18 -105,0 0,-18 z"
           inkscape:connector-curvature="0" />
      </clipPath>
      <clipPath
         id="clipPath58"
         clipPathUnits="userSpaceOnUse">
        <path
           id="path180"
           d="m 602,305 7,0 0,18 -7,0 0,-18 z"
           inkscape:connector-curvature="0" />
      </clipPath>
      <clipPath
         id="clipPath59"
         clipPathUnits="userSpaceOnUse">
        <path
           id="path183"
           d="m 454,329 23,0 0,13 -23,0 0,-13 z"
           inkscape:connector-curvature="0" />
      </clipPath>
      <clipPath
         id="clipPath60"
         clipPathUnits="userSpaceOnUse">
        <path
           id="path186"
           d="m 597,328 18,0 0,15 -18,0 0,-15 z"
           inkscape:connector-curvature="0" />
      </clipPath>
      <clipPath
         id="clipPath61"
         clipPathUnits="userSpaceOnUse">
        <path
           id="path189"
           d="m 441,322 187,0 0,80 -187,0 0,-80 z"
           inkscape:connector-curvature="0" />
      </clipPath>
      <clipPath
         id="clipPath62"
         clipPathUnits="userSpaceOnUse">
        <path
           id="path192"
           d="m 493,340 99,0 0,18 -99,0 0,-18 z"
           inkscape:connector-curvature="0" />
      </clipPath>
      <clipPath
         id="clipPath63"
         clipPathUnits="userSpaceOnUse">
        <path
           id="path195"
           d="m 601,344 7,0 0,18 -7,0 0,-18 z"
           inkscape:connector-curvature="0" />
      </clipPath>
      <clipPath
         id="clipPath64"
         clipPathUnits="userSpaceOnUse">
        <path
           id="path198"
           d="m 454,356 23,0 0,13 -23,0 0,-13 z"
           inkscape:connector-curvature="0" />
      </clipPath>
      <clipPath
         id="clipPath65"
         clipPathUnits="userSpaceOnUse">
        <path
           id="path201"
           d="m 597,355 18,0 0,15 -18,0 0,-15 z"
           inkscape:connector-curvature="0" />
      </clipPath>
      <clipPath
         id="clipPath66"
         clipPathUnits="userSpaceOnUse">
        <path
           id="path204"
           d="m 346,67 153,0 0,116 -153,0 0,-116 z"
           inkscape:connector-curvature="0" />
      </clipPath>
      <clipPath
         id="clipPath67"
         clipPathUnits="userSpaceOnUse">
        <path
           id="path207"
           d="m 429,107 57,0 0,18 -57,0 0,-18 z"
           inkscape:connector-curvature="0" />
      </clipPath>
      <clipPath
         id="clipPath68"
         clipPathUnits="userSpaceOnUse">
        <path
           id="path210"
           d="m 439,86 22,0 0,18 -22,0 0,-18 z"
           inkscape:connector-curvature="0" />
      </clipPath>
      <clipPath
         id="clipPath69"
         clipPathUnits="userSpaceOnUse">
        <path
           id="path213"
           d="m 416,80 13,0 0,13 -13,0 0,-13 z"
           inkscape:connector-curvature="0" />
      </clipPath>
    </defs>
  </defs>
  <rect
     x="355"
     y="41"
     clip-path="url(#clipPath3)"
     width="100"
     height="40"
     id="rect231"
     style="fill:#c8e6ff;stroke:none;font-family:Segoe UI"
     transform="translate(-103.5,-40.5)" />
  <text
     font-size="13"
     x="380"
     y="57"
     clip-path="url(#clipPath4)"
     font-weight="bold"
     xml:space="preserve"
     id="text233"
     style="font-size:13px;font-weight:bold;stroke:none;font-family:Dialog"
     transform="translate(-103.5,-40.5)">EObject</text>
  <line
     clip-path="url(#clipPath5)"
     x1="357"
     x2="453"
     y1="59"
     y2="59"
     id="line235"
     style="fill:none;stroke-linecap:butt;font-family:Segoe UI"
     transform="translate(-103.5,-40.5)" />
  <line
     clip-path="url(#clipPath6)"
     x1="357"
     x2="453"
     y1="69"
     y2="69"
     id="line237"
     style="fill:none;stroke-linecap:butt;font-family:Segoe UI"
     transform="translate(-103.5,-40.5)" />
  <rect
     x="355"
     y="41"
     clip-path="url(#clipPath3)"
     width="99"
     height="39"
     id="rect239"
     style="fill:none;stroke-linecap:butt;font-family:Segoe UI"
     transform="translate(-103.5,-40.5)" />
  <rect
     x="343"
     y="168"
     clip-path="url(#clipPath7)"
     width="124"
     height="68"
     id="rect241"
     style="fill:#c8e6ff;stroke:none;font-family:Segoe UI"
     transform="translate(-103.5,-40.5)" />
  <text
     font-size="13"
     x="389"
     y="184"
     clip-path="url(#clipPath8)"
     font-weight="bold"
     xml:space="preserve"
     id="text243"
     style="font-size:13px;font-weight:bold;stroke:none;font-family:Dialog"
     transform="translate(-103.5,-40.5)">View</text>
  <text
     font-size="13"
     x="346"
     y="203"
     clip-path="url(#clipPath9)"
     xml:space="preserve"
     id="text245"
     style="font-size:13px;stroke:none;font-family:Dialog"
     transform="translate(-103.5,-40.5)">+</text>
  <text
     font-size="13"
     x="355"
     y="203"
     clip-path="url(#clipPath10)"
     xml:space="preserve"
     id="text247"
     style="font-size:13px;stroke:none;font-family:Dialog"
     transform="translate(-103.5,-40.5)">visible : boolean</text>
  <text
     font-size="13"
     x="346"
     y="221"
     clip-path="url(#clipPath11)"
     xml:space="preserve"
     id="text249"
     style="font-size:13px;stroke:none;font-family:Dialog"
     transform="translate(-103.5,-40.5)">+</text>
  <text
     font-size="13"
     x="355"
     y="221"
     clip-path="url(#clipPath12)"
     xml:space="preserve"
     id="text251"
     style="font-size:13px;stroke:none;font-family:Dialog"
     transform="translate(-103.5,-40.5)">type : String</text>
  <line
     clip-path="url(#clipPath13)"
     x1="345"
     x2="465"
     y1="186"
     y2="186"
     id="line253"
     style="fill:none;stroke-linecap:butt;font-family:Segoe UI"
     transform="translate(-103.5,-40.5)" />
  <line
     clip-path="url(#clipPath14)"
     x1="345"
     x2="465"
     y1="224"
     y2="224"
     id="line255"
     style="fill:none;stroke-linecap:butt;font-family:Segoe UI"
     transform="translate(-103.5,-40.5)" />
  <rect
     x="343"
     y="168"
     clip-path="url(#clipPath7)"
     width="123"
     height="67"
     id="rect257"
     style="fill:none;stroke-linecap:butt;font-family:Segoe UI"
     transform="translate(-103.5,-40.5)" />
  <rect
     x="104"
     y="334"
     clip-path="url(#clipPath15)"
     width="100"
     height="40"
     id="rect259"
     style="fill:#c8e6ff;stroke:none;font-family:Segoe UI"
     transform="translate(-103.5,-40.5)" />
  <text
     font-size="13"
     x="137"
     y="350"
     clip-path="url(#clipPath16)"
     font-weight="bold"
     xml:space="preserve"
     id="text261"
     style="font-size:13px;font-weight:bold;stroke:none;font-family:Dialog"
     transform="translate(-103.5,-40.5)">Node</text>
  <line
     clip-path="url(#clipPath17)"
     x1="106"
     x2="202"
     y1="352"
     y2="352"
     id="line263"
     style="fill:none;stroke-linecap:butt;font-family:Segoe UI"
     transform="translate(-103.5,-40.5)" />
  <line
     clip-path="url(#clipPath18)"
     x1="106"
     x2="202"
     y1="362"
     y2="362"
     id="line265"
     style="fill:none;stroke-linecap:butt;font-family:Segoe UI"
     transform="translate(-103.5,-40.5)" />
  <rect
     x="104"
     y="334"
     clip-path="url(#clipPath15)"
     width="99"
     height="39"
     id="rect267"
     style="fill:none;stroke-linecap:butt;font-family:Segoe UI"
     transform="translate(-103.5,-40.5)" />
  <rect
     x="355"
     y="324"
     clip-path="url(#clipPath19)"
     width="100"
     height="50"
     id="rect269"
     style="fill:#c8e6ff;stroke:none;font-family:Segoe UI"
     transform="translate(-103.5,-40.5)" />
  <text
     font-size="13"
     x="378"
     y="340"
     clip-path="url(#clipPath20)"
     font-weight="bold"
     xml:space="preserve"
     id="text271"
     style="font-size:13px;font-weight:bold;stroke:none;font-family:Dialog"
     transform="translate(-103.5,-40.5)">Diagram</text>
  <text
     font-size="13"
     x="358"
     y="359"
     clip-path="url(#clipPath21)"
     xml:space="preserve"
     id="text273"
     style="font-size:13px;stroke:none;font-family:Dialog"
     transform="translate(-103.5,-40.5)">+</text>
  <text
     font-size="13"
     x="367"
     y="359"
     clip-path="url(#clipPath22)"
     xml:space="preserve"
     id="text275"
     style="font-size:13px;stroke:none;font-family:Dialog"
     transform="translate(-103.5,-40.5)">name : String</text>
  <line
     clip-path="url(#clipPath23)"
     x1="357"
     x2="453"
     y1="342"
     y2="342"
     id="line277"
     style="fill:none;stroke-linecap:butt;font-family:Segoe UI"
     transform="translate(-103.5,-40.5)" />
  <line
     clip-path="url(#clipPath24)"
     x1="357"
     x2="453"
     y1="362"
     y2="362"
     id="line279"
     style="fill:none;stroke-linecap:butt;font-family:Segoe UI"
     transform="translate(-103.5,-40.5)" />
  <rect
     x="355"
     y="324"
     clip-path="url(#clipPath19)"
     width="99"
     height="49"
     id="rect281"
     style="fill:none;stroke-linecap:butt;font-family:Segoe UI"
     transform="translate(-103.5,-40.5)" />
  <rect
     x="613"
     y="331"
     clip-path="url(#clipPath25)"
     width="100"
     height="40"
     id="rect283"
     style="fill:#c8e6ff;stroke:none;font-family:Segoe UI"
     transform="translate(-103.5,-40.5)" />
  <text
     font-size="13"
     x="647"
     y="347"
     clip-path="url(#clipPath26)"
     font-weight="bold"
     xml:space="preserve"
     id="text285"
     style="font-size:13px;font-weight:bold;stroke:none;font-family:Dialog"
     transform="translate(-103.5,-40.5)">Edge</text>
  <line
     clip-path="url(#clipPath27)"
     x1="615"
     x2="711"
     y1="349"
     y2="349"
     id="line287"
     style="fill:none;stroke-linecap:butt;font-family:Segoe UI"
     transform="translate(-103.5,-40.5)" />
  <line
     clip-path="url(#clipPath28)"
     x1="615"
     x2="711"
     y1="359"
     y2="359"
     id="line289"
     style="fill:none;stroke-linecap:butt;font-family:Segoe UI"
     transform="translate(-103.5,-40.5)" />
  <rect
     x="613"
     y="331"
     clip-path="url(#clipPath25)"
     width="99"
     height="39"
     id="rect291"
     style="fill:none;stroke-linecap:butt;font-family:Segoe UI"
     transform="translate(-103.5,-40.5)" />
  <rect
     x="613"
     y="178"
     clip-path="url(#clipPath29)"
     width="100"
     height="40"
     id="rect293"
     style="fill:#c8e6ff;stroke:none;font-family:Segoe UI"
     transform="translate(-103.5,-40.5)" />
  <text
     font-size="13"
     x="647"
     y="194"
     clip-path="url(#clipPath30)"
     font-weight="bold"
     xml:space="preserve"
     id="text295"
     style="font-size:13px;font-weight:bold;stroke:none;font-family:Dialog"
     transform="translate(-103.5,-40.5)">Style</text>
  <line
     clip-path="url(#clipPath31)"
     x1="615"
     x2="711"
     y1="196"
     y2="196"
     id="line297"
     style="fill:none;stroke-linecap:butt;font-family:Segoe UI"
     transform="translate(-103.5,-40.5)" />
  <line
     clip-path="url(#clipPath32)"
     x1="615"
     x2="711"
     y1="206"
     y2="206"
     id="line299"
     style="fill:none;stroke-linecap:butt;font-family:Segoe UI"
     transform="translate(-103.5,-40.5)" />
  <rect
     x="613"
     y="178"
     clip-path="url(#clipPath29)"
     width="99"
     height="39"
     id="rect301"
     style="fill:none;stroke-linecap:butt;font-family:Segoe UI"
     transform="translate(-103.5,-40.5)" />
  <line
     clip-path="url(#clipPath34)"
     x1="374"
     x2="374"
     y1="168"
     y2="81"
     id="line305"
     style="fill:none;stroke-linecap:butt;font-family:Segoe UI"
     transform="translate(-103.5,-40.5)" />
  <polygon
     clip-path="url(#clipPath35)"
     points="380,95 368,95 374,81 "
     id="polygon309"
     style="font-size:13px;fill:#ffffff;stroke:none"
     transform="translate(-103.5,-40.5)" />
  <polygon
     clip-path="url(#clipPath35)"
     points="380,95 368,95 374,81 "
     id="polygon311"
     style="font-size:13px;fill:none;stroke:#000000;stroke-linecap:butt"
     transform="translate(-103.5,-40.5)" />
  <line
     clip-path="url(#clipPath36)"
     x1="405"
     x2="405"
     y1="324"
     y2="236"
     id="line313"
     style="font-size:13px;fill:none;stroke:#000000;stroke-linecap:butt"
     transform="translate(-103.5,-40.5)" />
  <polygon
     clip-path="url(#clipPath37)"
     points="411,250 399,250 405,236 "
     id="polygon315"
     style="font-size:13px;fill:#ffffff;stroke:none"
     transform="translate(-103.5,-40.5)" />
  <polygon
     clip-path="url(#clipPath37)"
     points="411,250 399,250 405,236 "
     id="polygon317"
     style="font-size:13px;fill:none;stroke:#000000;stroke-linecap:butt"
     transform="translate(-103.5,-40.5)" />
  <line
     clip-path="url(#clipPath38)"
     x1="186"
     x2="186"
     y1="334"
     y2="282"
     id="line319"
     style="font-size:13px;fill:none;stroke:#000000;stroke-linecap:butt"
     transform="translate(-103.5,-40.5)" />
  <line
     clip-path="url(#clipPath38)"
     x1="186"
     x2="405"
     y1="282"
     y2="282"
     id="line321"
     style="font-size:13px;fill:none;stroke:#000000;stroke-linecap:butt"
     transform="translate(-103.5,-40.5)" />
  <line
     clip-path="url(#clipPath38)"
     x1="405"
     x2="405"
     y1="282"
     y2="236"
     id="line323"
     style="font-size:13px;fill:none;stroke:#000000;stroke-linecap:butt"
     transform="translate(-103.5,-40.5)" />
  <polygon
     clip-path="url(#clipPath37)"
     points="411,250 399,250 405,236 "
     id="polygon325"
     style="font-size:13px;fill:#ffffff;stroke:none"
     transform="translate(-103.5,-40.5)" />
  <polygon
     clip-path="url(#clipPath37)"
     points="411,250 399,250 405,236 "
     id="polygon327"
     style="font-size:13px;fill:none;stroke:#000000;stroke-linecap:butt"
     transform="translate(-103.5,-40.5)" />
  <line
     clip-path="url(#clipPath39)"
     x1="628"
     x2="628"
     y1="331"
     y2="281"
     id="line329"
     style="font-size:13px;fill:none;stroke:#000000;stroke-linecap:butt"
     transform="translate(-103.5,-40.5)" />
  <line
     clip-path="url(#clipPath39)"
     x1="628"
     x2="404"
     y1="281"
     y2="281"
     id="line331"
     style="font-size:13px;fill:none;stroke:#000000;stroke-linecap:butt"
     transform="translate(-103.5,-40.5)" />
  <line
     clip-path="url(#clipPath39)"
     x1="404"
     x2="404"
     y1="281"
     y2="236"
     id="line333"
     style="font-size:13px;fill:none;stroke:#000000;stroke-linecap:butt"
     transform="translate(-103.5,-40.5)" />
  <polygon
     clip-path="url(#clipPath40)"
     points="410,250 398,250 404,236 "
     id="polygon335"
     style="font-size:13px;fill:#ffffff;stroke:none"
     transform="translate(-103.5,-40.5)" />
  <polygon
     clip-path="url(#clipPath40)"
     points="410,250 398,250 404,236 "
     id="polygon337"
     style="font-size:13px;fill:none;stroke:#000000;stroke-linecap:butt"
     transform="translate(-103.5,-40.5)" />
  <line
     clip-path="url(#clipPath41)"
     x1="467"
     x2="613"
     y1="200"
     y2="200"
     id="line339"
     style="font-size:13px;fill:none;stroke:#000000;stroke-linecap:butt"
     transform="translate(-103.5,-40.5)" />
  <text
     x="561"
     y="224"
     clip-path="url(#clipPath42)"
     xml:space="preserve"
     id="text341"
     style="font-size:13px;fill:#000000;stroke:none"
     transform="translate(-103.5,-40.5)">+styles</text>
  <text
     x="598"
     y="188"
     clip-path="url(#clipPath43)"
     xml:space="preserve"
     id="text343"
     style="font-size:13px;fill:#000000;stroke:none"
     transform="translate(-103.5,-40.5)">*</text>
  <polygon
     clip-path="url(#clipPath44)"
     points="477,205 467,200 477,195 487,200 "
     id="polygon345"
     style="font-size:13px;fill:#000000;stroke:none"
     transform="translate(-103.5,-40.5)" />
  <polygon
     clip-path="url(#clipPath44)"
     points="477,205 467,200 477,195 487,200 "
     id="polygon347"
     style="font-size:13px;fill:none;stroke:#000000;stroke-linecap:butt"
     transform="translate(-103.5,-40.5)" />
  <polygon
     clip-path="url(#clipPath45)"
     points="609,201 609,200 609,199 610,199 610,198 611,198 612,198 612,199 613,199 613,200 611,202 611,198 609,200 611,202 612,198 613,200 610,200 598,206 610,200 598,194 610,200 613,200 613,201 612,201 612,202 611,202 610,202 610,201 "
     id="polygon349"
     style="font-size:13px;fill:#000000;stroke:none"
     transform="translate(-103.5,-40.5)" />
  <polygon
     clip-path="url(#clipPath45)"
     points="609,201 609,200 609,199 610,199 610,198 611,198 612,198 612,199 613,199 613,200 611,202 611,198 609,200 611,202 612,198 613,200 610,200 598,206 610,200 598,194 610,200 613,200 613,201 612,201 612,202 611,202 610,202 610,201 "
     id="polygon351"
     style="font-size:13px;fill:none;stroke:#000000;stroke-linecap:butt"
     transform="translate(-103.5,-40.5)" />
  <line
     clip-path="url(#clipPath46)"
     x1="343"
     x2="119"
     y1="187"
     y2="187"
     id="line353"
     style="font-size:13px;fill:none;stroke:#000000;stroke-linecap:butt"
     transform="translate(-103.5,-40.5)" />
  <line
     clip-path="url(#clipPath46)"
     x1="119"
     x2="119"
     y1="187"
     y2="334"
     id="line355"
     style="font-size:13px;fill:none;stroke:#000000;stroke-linecap:butt"
     transform="translate(-103.5,-40.5)" />
  <text
     x="133"
     y="167"
     clip-path="url(#clipPath47)"
     xml:space="preserve"
     id="text357"
     style="font-size:13px;fill:#000000;stroke:none"
     transform="translate(-103.5,-40.5)">+persistedChildren</text>
  <text
     x="104"
     y="322"
     clip-path="url(#clipPath48)"
     xml:space="preserve"
     id="text359"
     style="font-size:13px;fill:#000000;stroke:none"
     transform="translate(-103.5,-40.5)">*</text>
  <polygon
     clip-path="url(#clipPath49)"
     points="333,182 343,187 333,192 323,187 "
     id="polygon361"
     style="font-size:13px;fill:#000000;stroke:none"
     transform="translate(-103.5,-40.5)" />
  <polygon
     clip-path="url(#clipPath49)"
     points="333,182 343,187 333,192 323,187 "
     id="polygon363"
     style="font-size:13px;fill:none;stroke:#000000;stroke-linecap:butt"
     transform="translate(-103.5,-40.5)" />
  <polygon
     clip-path="url(#clipPath50)"
     points="118,330 119,330 120,330 120,331 121,331 121,332 121,333 120,333 120,334 119,334 117,332 121,332 119,330 117,332 121,333 119,334 119,331 113,319 119,331 125,319 119,331 119,334 118,334 118,333 117,333 117,332 117,331 118,331 "
     id="polygon365"
     style="font-size:13px;fill:#000000;stroke:none"
     transform="translate(-103.5,-40.5)" />
  <polygon
     clip-path="url(#clipPath50)"
     points="118,330 119,330 120,330 120,331 121,331 121,332 121,333 120,333 120,334 119,334 117,332 121,332 119,330 117,332 121,333 119,334 119,331 113,319 119,331 125,319 119,331 119,334 118,334 118,333 117,333 117,332 117,331 118,331 "
     id="polygon367"
     style="font-size:13px;fill:none;stroke:#000000;stroke-linecap:butt"
     transform="translate(-103.5,-40.5)" />
  <line
     clip-path="url(#clipPath51)"
     x1="343"
     x2="167"
     y1="216"
     y2="216"
     id="line369"
     style="font-size:13px;fill:none;stroke:#000000;stroke-linecap:butt"
     transform="translate(-103.5,-40.5)" />
  <line
     clip-path="url(#clipPath51)"
     x1="167"
     x2="167"
     y1="216"
     y2="334"
     id="line371"
     style="font-size:13px;fill:none;stroke:#000000;stroke-linecap:butt"
     transform="translate(-103.5,-40.5)" />
  <text
     x="190"
     y="207"
     clip-path="url(#clipPath52)"
     xml:space="preserve"
     id="text373"
     style="font-size:13px;fill:#000000;stroke:none"
     transform="translate(-103.5,-40.5)">+transientChildren</text>
  <text
     x="152"
     y="322"
     clip-path="url(#clipPath53)"
     xml:space="preserve"
     id="text375"
     style="font-size:13px;fill:#000000;stroke:none"
     transform="translate(-103.5,-40.5)">*</text>
  <polygon
     clip-path="url(#clipPath54)"
     points="333,211 343,216 333,221 323,216 "
     id="polygon377"
     style="font-size:13px;fill:#000000;stroke:none"
     transform="translate(-103.5,-40.5)" />
  <polygon
     clip-path="url(#clipPath54)"
     points="333,211 343,216 333,221 323,216 "
     id="polygon379"
     style="font-size:13px;fill:none;stroke:#000000;stroke-linecap:butt"
     transform="translate(-103.5,-40.5)" />
  <polygon
     clip-path="url(#clipPath55)"
     points="166,330 167,330 168,330 168,331 169,331 169,332 169,333 168,333 168,334 167,334 165,332 169,332 167,330 165,332 169,333 167,334 167,331 161,319 167,331 173,319 167,331 167,334 166,334 166,333 165,333 165,332 165,331 166,331 "
     id="polygon381"
     style="font-size:13px;fill:#000000;stroke:none"
     transform="translate(-103.5,-40.5)" />
  <polygon
     clip-path="url(#clipPath55)"
     points="166,330 167,330 168,330 168,331 169,331 169,332 169,333 168,333 168,334 167,334 165,332 169,332 167,330 165,332 169,333 167,334 167,331 161,319 167,331 173,319 167,331 167,334 166,334 166,333 165,333 165,332 165,331 166,331 "
     id="polygon383"
     style="font-size:13px;fill:none;stroke:#000000;stroke-linecap:butt"
     transform="translate(-103.5,-40.5)" />
  <line
     clip-path="url(#clipPath56)"
     x1="455"
     x2="613"
     y1="335"
     y2="335"
     id="line385"
     style="font-size:13px;fill:none;stroke:#000000;stroke-linecap:butt"
     transform="translate(-103.5,-40.5)" />
  <text
     x="486"
     y="325"
     clip-path="url(#clipPath57)"
     xml:space="preserve"
     id="text387"
     style="font-size:13px;fill:#000000;stroke:none"
     transform="translate(-103.5,-40.5)">+persistedEdges</text>
  <text
     x="603"
     y="320"
     clip-path="url(#clipPath58)"
     xml:space="preserve"
     id="text389"
     style="font-size:13px;fill:#000000;stroke:none"
     transform="translate(-103.5,-40.5)">*</text>
  <polygon
     clip-path="url(#clipPath59)"
     points="465,340 455,335 465,330 475,335 "
     id="polygon391"
     style="font-size:13px;fill:#000000;stroke:none"
     transform="translate(-103.5,-40.5)" />
  <polygon
     clip-path="url(#clipPath59)"
     points="465,340 455,335 465,330 475,335 "
     id="polygon393"
     style="font-size:13px;fill:none;stroke:#000000;stroke-linecap:butt"
     transform="translate(-103.5,-40.5)" />
  <polygon
     clip-path="url(#clipPath60)"
     points="609,336 609,335 609,334 610,334 610,333 611,333 612,333 612,334 613,334 613,335 611,337 611,333 609,335 611,337 612,333 613,335 610,335 598,341 610,335 598,329 610,335 613,335 613,336 612,336 612,337 611,337 610,337 610,336 "
     id="polygon395"
     style="font-size:13px;fill:#000000;stroke:none"
     transform="translate(-103.5,-40.5)" />
  <polygon
     clip-path="url(#clipPath60)"
     points="609,336 609,335 609,334 610,334 610,333 611,333 612,333 612,334 613,334 613,335 611,337 611,333 609,335 611,337 612,333 613,335 610,335 598,341 610,335 598,329 610,335 613,335 613,336 612,336 612,337 611,337 610,337 610,336 "
     id="polygon397"
     style="font-size:13px;fill:none;stroke:#000000;stroke-linecap:butt"
     transform="translate(-103.5,-40.5)" />
  <line
     clip-path="url(#clipPath61)"
     x1="455"
     x2="613"
     y1="362"
     y2="362"
     id="line399"
     style="font-size:13px;fill:none;stroke:#000000;stroke-linecap:butt"
     transform="translate(-103.5,-40.5)" />
  <text
     x="494"
     y="355"
     clip-path="url(#clipPath62)"
     xml:space="preserve"
     id="text401"
     style="font-size:13px;fill:#000000;stroke:none"
     transform="translate(-103.5,-40.5)">+transientEdges</text>
  <text
     x="602"
     y="359"
     clip-path="url(#clipPath63)"
     xml:space="preserve"
     id="text403"
     style="font-size:13px;fill:#000000;stroke:none"
     transform="translate(-103.5,-40.5)">*</text>
  <polygon
     clip-path="url(#clipPath64)"
     points="465,367 455,362 465,357 475,362 "
     id="polygon405"
     style="font-size:13px;fill:#000000;stroke:none"
     transform="translate(-103.5,-40.5)" />
  <polygon
     clip-path="url(#clipPath64)"
     points="465,367 455,362 465,357 475,362 "
     id="polygon407"
     style="font-size:13px;fill:none;stroke:#000000;stroke-linecap:butt"
     transform="translate(-103.5,-40.5)" />
  <polygon
     clip-path="url(#clipPath65)"
     points="609,363 609,362 609,361 610,361 610,360 611,360 612,360 612,361 613,361 613,362 611,364 611,360 609,362 611,364 612,360 613,362 610,362 598,368 610,362 598,356 610,362 613,362 613,363 612,363 612,364 611,364 610,364 610,363 "
     id="polygon409"
     style="font-size:13px;fill:#000000;stroke:none"
     transform="translate(-103.5,-40.5)" />
  <polygon
     clip-path="url(#clipPath65)"
     points="609,363 609,362 609,361 610,361 610,360 611,360 612,360 612,361 613,361 613,362 611,364 611,360 609,362 611,364 612,360 613,362 610,362 598,368 610,362 598,356 610,362 613,362 613,363 612,363 612,364 611,364 610,364 610,363 "
     id="polygon411"
     style="font-size:13px;fill:none;stroke:#000000;stroke-linecap:butt"
     transform="translate(-103.5,-40.5)" />
  <line
     clip-path="url(#clipPath66)"
     x1="422"
     x2="422"
     y1="168"
     y2="81"
     id="line413"
     style="font-size:13px;fill:none;stroke:#000000;stroke-linecap:butt"
     transform="translate(-103.5,-40.5)" />
  <text
     x="430"
     y="122"
     clip-path="url(#clipPath67)"
     xml:space="preserve"
     id="text415"
     style="font-size:13px;fill:#000000;stroke:none"
     transform="translate(-103.5,-40.5)">+element</text>
  <text
     x="440"
     y="101"
     clip-path="url(#clipPath68)"
     xml:space="preserve"
     id="text417"
     style="font-size:13px;fill:#000000;stroke:none"
     transform="translate(-103.5,-40.5)">0..1</text>
  <line
     clip-path="url(#clipPath69)"
     x1="427"
     x2="422"
     y1="91"
     y2="81"
     id="line419"
     style="font-size:13px;fill:none;stroke:#000000;stroke-linecap:butt"
     transform="translate(-103.5,-40.5)" />
  <line
     clip-path="url(#clipPath69)"
     x1="422"
     x2="417"
     y1="81"
     y2="91"
     id="line421"
     style="font-size:13px;fill:none;stroke:#000000;stroke-linecap:butt"
     transform="translate(-103.5,-40.5)" />
</svg>
