<?xml version="1.0" encoding="UTF-8" standalone="no"?>
<svg
   xmlns:dc="http://purl.org/dc/elements/1.1/"
   xmlns:cc="http://creativecommons.org/ns#"
   xmlns:rdf="http://www.w3.org/1999/02/22-rdf-syntax-ns#"
   xmlns:svg="http://www.w3.org/2000/svg"
   xmlns="http://www.w3.org/2000/svg"
   xmlns:sodipodi="http://sodipodi.sourceforge.net/DTD/sodipodi-0.dtd"
   xmlns:inkscape="http://www.inkscape.org/namespaces/inkscape"
   shape-rendering="auto"
   width="685.5"
   text-rendering="auto"
   color-interpolation="auto"
   color-rendering="auto"
   font-size="12"
   image-rendering="auto"
   stroke-miterlimit="10"
   font-style="normal"
   height="365.30566"
   font-weight="normal"
   id="svg2"
   version="1.1"
   inkscape:version="0.48.2 r9819"
   sodipodi:docname="Notation_TermTree.svg"
   style="font-size:12px;font-style:normal;font-weight:normal;fill:#000000;fill-opacity:1;stroke:#000000;stroke-width:1;stroke-linecap:square;stroke-linejoin:miter;stroke-miterlimit:10;stroke-opacity:1;stroke-dasharray:none;stroke-dashoffset:0;font-family:Dialog">
  <metadata
     id="metadata486">
    <rdf:RDF>
      <cc:Work
         rdf:about="">
        <dc:format>image/svg+xml</dc:format>
        <dc:type
           rdf:resource="http://purl.org/dc/dcmitype/StillImage" />
      </cc:Work>
    </rdf:RDF>
  </metadata>
  <sodipodi:namedview
     pagecolor="#ffffff"
     bordercolor="#666666"
     borderopacity="1"
     objecttolerance="10"
     gridtolerance="10"
     guidetolerance="10"
     inkscape:pageopacity="0"
     inkscape:pageshadow="2"
     inkscape:window-width="1680"
     inkscape:window-height="1028"
     id="namedview484"
     showgrid="false"
     fit-margin-top="0"
     fit-margin-left="0"
     fit-margin-right="0"
     fit-margin-bottom="0"
     inkscape:zoom="0.82229965"
     inkscape:cx="145.23168"
     inkscape:cy="358.38773"
     inkscape:window-x="-8"
     inkscape:window-y="-8"
     inkscape:window-maximized="1"
     inkscape:current-layer="svg2" />
  <!--Generated by the Batik Graphics2D SVG Generator-->
  <defs
     id="genericDefs">
    <defs
       id="defs1">
      <clipPath
         id="clipPath1"
         clipPathUnits="userSpaceOnUse">
        <path
           id="path9"
           d="m -1,-1 802,0 0,1150 -802,0 0,-1150 z"
           inkscape:connector-curvature="0" />
      </clipPath>
      <clipPath
         id="clipPath2"
         clipPathUnits="userSpaceOnUse">
        <path
           id="path12"
           d="M 5,5 56,5 56,22 5,22 5,5 z"
           inkscape:connector-curvature="0" />
      </clipPath>
      <clipPath
         id="clipPath3"
         clipPathUnits="userSpaceOnUse">
        <path
           id="path15"
           d="m 56,5 90,0 0,18 -90,0 0,-18 z"
           inkscape:connector-curvature="0" />
      </clipPath>
      <clipPath
         id="clipPath4"
         clipPathUnits="userSpaceOnUse">
        <path
           id="path18"
           d="m 38,862 136,0 0,22 -136,0 0,-22 z"
           inkscape:connector-curvature="0" />
      </clipPath>
      <clipPath
         id="clipPath5"
         clipPathUnits="userSpaceOnUse">
        <path
           id="path21"
           d="m 41,865 129,0 0,18 -129,0 0,-18 z"
           inkscape:connector-curvature="0" />
      </clipPath>
      <clipPath
         id="clipPath6"
         clipPathUnits="userSpaceOnUse">
        <path
           id="path24"
           d="m 38,882 555,0 0,106 -555,0 0,-106 z"
           inkscape:connector-curvature="0" />
      </clipPath>
      <clipPath
         id="clipPath7"
         clipPathUnits="userSpaceOnUse">
        <path
           id="path27"
           d="m 95,919 102,0 0,42 -102,0 0,-42 z"
           inkscape:connector-curvature="0" />
      </clipPath>
      <clipPath
         id="clipPath8"
         clipPathUnits="userSpaceOnUse">
        <path
           id="path30"
           d="m 104,921 83,0 0,18 -83,0 0,-18 z"
           inkscape:connector-curvature="0" />
      </clipPath>
      <clipPath
         id="clipPath9"
         clipPathUnits="userSpaceOnUse">
        <path
           id="path33"
           d="m 97,937 98,0 0,12 -98,0 0,-12 z"
           inkscape:connector-curvature="0" />
      </clipPath>
      <clipPath
         id="clipPath10"
         clipPathUnits="userSpaceOnUse">
        <path
           id="path36"
           d="m 97,947 98,0 0,12 -98,0 0,-12 z"
           inkscape:connector-curvature="0" />
      </clipPath>
      <clipPath
         id="clipPath11"
         clipPathUnits="userSpaceOnUse">
        <path
           id="path39"
           d="m 442,919 102,0 0,42 -102,0 0,-42 z"
           inkscape:connector-curvature="0" />
      </clipPath>
      <clipPath
         id="clipPath12"
         clipPathUnits="userSpaceOnUse">
        <path
           id="path42"
           d="m 464,921 58,0 0,18 -58,0 0,-18 z"
           inkscape:connector-curvature="0" />
      </clipPath>
      <clipPath
         id="clipPath13"
         clipPathUnits="userSpaceOnUse">
        <path
           id="path45"
           d="m 444,937 98,0 0,12 -98,0 0,-12 z"
           inkscape:connector-curvature="0" />
      </clipPath>
      <clipPath
         id="clipPath14"
         clipPathUnits="userSpaceOnUse">
        <path
           id="path48"
           d="m 444,947 98,0 0,12 -98,0 0,-12 z"
           inkscape:connector-curvature="0" />
      </clipPath>
      <clipPath
         id="clipPath15"
         clipPathUnits="userSpaceOnUse">
        <path
           id="path51"
           d="m 275,919 102,0 0,42 -102,0 0,-42 z"
           inkscape:connector-curvature="0" />
      </clipPath>
      <clipPath
         id="clipPath16"
         clipPathUnits="userSpaceOnUse">
        <path
           id="path54"
           d="m 293,921 66,0 0,18 -66,0 0,-18 z"
           inkscape:connector-curvature="0" />
      </clipPath>
      <clipPath
         id="clipPath17"
         clipPathUnits="userSpaceOnUse">
        <path
           id="path57"
           d="m 277,937 98,0 0,12 -98,0 0,-12 z"
           inkscape:connector-curvature="0" />
      </clipPath>
      <clipPath
         id="clipPath18"
         clipPathUnits="userSpaceOnUse">
        <path
           id="path60"
           d="m 277,947 98,0 0,12 -98,0 0,-12 z"
           inkscape:connector-curvature="0" />
      </clipPath>
      <clipPath
         id="clipPath19"
         clipPathUnits="userSpaceOnUse">
        <path
           id="path63"
           d="m 434,777 116,0 0,42 -116,0 0,-42 z"
           inkscape:connector-curvature="0" />
      </clipPath>
      <clipPath
         id="clipPath20"
         clipPathUnits="userSpaceOnUse">
        <path
           id="path66"
           d="m 436,779 111,0 0,18 -111,0 0,-18 z"
           inkscape:connector-curvature="0" />
      </clipPath>
      <clipPath
         id="clipPath21"
         clipPathUnits="userSpaceOnUse">
        <path
           id="path69"
           d="m 436,795 112,0 0,12 -112,0 0,-12 z"
           inkscape:connector-curvature="0" />
      </clipPath>
      <clipPath
         id="clipPath22"
         clipPathUnits="userSpaceOnUse">
        <path
           id="path72"
           d="m 436,805 112,0 0,12 -112,0 0,-12 z"
           inkscape:connector-curvature="0" />
      </clipPath>
      <clipPath
         id="clipPath23"
         clipPathUnits="userSpaceOnUse">
        <path
           id="path75"
           d="m 70,777 143,0 0,42 -143,0 0,-42 z"
           inkscape:connector-curvature="0" />
      </clipPath>
      <clipPath
         id="clipPath24"
         clipPathUnits="userSpaceOnUse">
        <path
           id="path78"
           d="m 73,779 136,0 0,18 -136,0 0,-18 z"
           inkscape:connector-curvature="0" />
      </clipPath>
      <clipPath
         id="clipPath25"
         clipPathUnits="userSpaceOnUse">
        <path
           id="path81"
           d="m 72,795 139,0 0,12 -139,0 0,-12 z"
           inkscape:connector-curvature="0" />
      </clipPath>
      <clipPath
         id="clipPath26"
         clipPathUnits="userSpaceOnUse">
        <path
           id="path84"
           d="m 72,805 139,0 0,12 -139,0 0,-12 z"
           inkscape:connector-curvature="0" />
      </clipPath>
      <clipPath
         id="clipPath27"
         clipPathUnits="userSpaceOnUse">
        <path
           id="path87"
           d="m 426,629 111,0 0,42 -111,0 0,-42 z"
           inkscape:connector-curvature="0" />
      </clipPath>
      <clipPath
         id="clipPath28"
         clipPathUnits="userSpaceOnUse">
        <path
           id="path90"
           d="m 433,631 97,0 0,18 -97,0 0,-18 z"
           inkscape:connector-curvature="0" />
      </clipPath>
      <clipPath
         id="clipPath29"
         clipPathUnits="userSpaceOnUse">
        <path
           id="path93"
           d="m 428,647 107,0 0,12 -107,0 0,-12 z"
           inkscape:connector-curvature="0" />
      </clipPath>
      <clipPath
         id="clipPath30"
         clipPathUnits="userSpaceOnUse">
        <path
           id="path96"
           d="m 428,657 107,0 0,12 -107,0 0,-12 z"
           inkscape:connector-curvature="0" />
      </clipPath>
      <clipPath
         id="clipPath31"
         clipPathUnits="userSpaceOnUse">
        <path
           id="path99"
           d="m 258,777 135,0 0,42 -135,0 0,-42 z"
           inkscape:connector-curvature="0" />
      </clipPath>
      <clipPath
         id="clipPath32"
         clipPathUnits="userSpaceOnUse">
        <path
           id="path102"
           d="m 266,779 119,0 0,18 -119,0 0,-18 z"
           inkscape:connector-curvature="0" />
      </clipPath>
      <clipPath
         id="clipPath33"
         clipPathUnits="userSpaceOnUse">
        <path
           id="path105"
           d="m 260,795 131,0 0,12 -131,0 0,-12 z"
           inkscape:connector-curvature="0" />
      </clipPath>
      <clipPath
         id="clipPath34"
         clipPathUnits="userSpaceOnUse">
        <path
           id="path108"
           d="m 260,805 131,0 0,12 -131,0 0,-12 z"
           inkscape:connector-curvature="0" />
      </clipPath>
      <clipPath
         id="clipPath35"
         clipPathUnits="userSpaceOnUse">
        <path
           id="path111"
           d="m 613,774 102,0 0,42 -102,0 0,-42 z"
           inkscape:connector-curvature="0" />
      </clipPath>
      <clipPath
         id="clipPath36"
         clipPathUnits="userSpaceOnUse">
        <path
           id="path114"
           d="m 652,776 24,0 0,18 -24,0 0,-18 z"
           inkscape:connector-curvature="0" />
      </clipPath>
      <clipPath
         id="clipPath37"
         clipPathUnits="userSpaceOnUse">
        <path
           id="path117"
           d="m 615,792 98,0 0,12 -98,0 0,-12 z"
           inkscape:connector-curvature="0" />
      </clipPath>
      <clipPath
         id="clipPath38"
         clipPathUnits="userSpaceOnUse">
        <path
           id="path120"
           d="m 615,802 98,0 0,12 -98,0 0,-12 z"
           inkscape:connector-curvature="0" />
      </clipPath>
      <clipPath
         id="clipPath39"
         clipPathUnits="userSpaceOnUse">
        <path
           id="path123"
           d="m 609,837 116,0 0,45 -116,0 0,-45 z"
           inkscape:connector-curvature="0" />
      </clipPath>
      <clipPath
         id="clipPath40"
         clipPathUnits="userSpaceOnUse">
        <path
           id="path126"
           d="m 612,845 100,0 0,34 -100,0 0,-34 z"
           inkscape:connector-curvature="0" />
      </clipPath>
      <clipPath
         id="clipPath41"
         clipPathUnits="userSpaceOnUse">
        <path
           id="path129"
           d="m 38,804 1089,0 0,201 -1089,0 0,-201 z"
           inkscape:connector-curvature="0" />
      </clipPath>
      <clipPath
         id="clipPath42"
         clipPathUnits="userSpaceOnUse">
        <path
           id="path132"
           d="m 95,898 84,0 0,18 -84,0 0,-18 z"
           inkscape:connector-curvature="0" />
      </clipPath>
      <clipPath
         id="clipPath43"
         clipPathUnits="userSpaceOnUse">
        <path
           id="path135"
           d="m 189,898 9,0 0,18 -9,0 0,-18 z"
           inkscape:connector-curvature="0" />
      </clipPath>
      <clipPath
         id="clipPath44"
         clipPathUnits="userSpaceOnUse">
        <path
           id="path138"
           d="m 179,909 13,0 0,13 -13,0 0,-13 z"
           inkscape:connector-curvature="0" />
      </clipPath>
      <clipPath
         id="clipPath45"
         clipPathUnits="userSpaceOnUse">
        <path
           id="path141"
           d="m 179,804 386,0 0,131 -386,0 0,-131 z"
           inkscape:connector-curvature="0" />
      </clipPath>
      <clipPath
         id="clipPath46"
         clipPathUnits="userSpaceOnUse">
        <path
           id="path144"
           d="m 496,893 56,0 0,18 -56,0 0,-18 z"
           inkscape:connector-curvature="0" />
      </clipPath>
      <clipPath
         id="clipPath47"
         clipPathUnits="userSpaceOnUse">
        <path
           id="path147"
           d="m 469,893 9,0 0,18 -9,0 0,-18 z"
           inkscape:connector-curvature="0" />
      </clipPath>
      <clipPath
         id="clipPath48"
         clipPathUnits="userSpaceOnUse">
        <path
           id="path150"
           d="m 481,909 13,0 0,13 -13,0 0,-13 z"
           inkscape:connector-curvature="0" />
      </clipPath>
      <clipPath
         id="clipPath49"
         clipPathUnits="userSpaceOnUse">
        <path
           id="path153"
           d="m 201,804 265,0 0,131 -265,0 0,-131 z"
           inkscape:connector-curvature="0" />
      </clipPath>
      <clipPath
         id="clipPath50"
         clipPathUnits="userSpaceOnUse">
        <path
           id="path156"
           d="m 334,893 69,0 0,18 -69,0 0,-18 z"
           inkscape:connector-curvature="0" />
      </clipPath>
      <clipPath
         id="clipPath51"
         clipPathUnits="userSpaceOnUse">
        <path
           id="path159"
           d="m 307,893 9,0 0,18 -9,0 0,-18 z"
           inkscape:connector-curvature="0" />
      </clipPath>
      <clipPath
         id="clipPath52"
         clipPathUnits="userSpaceOnUse">
        <path
           id="path162"
           d="m 319,909 13,0 0,13 -13,0 0,-13 z"
           inkscape:connector-curvature="0" />
      </clipPath>
      <clipPath
         id="clipPath53"
         clipPathUnits="userSpaceOnUse">
        <path
           id="path165"
           d="m 470,656 41,0 0,137 -41,0 0,-137 z"
           inkscape:connector-curvature="0" />
      </clipPath>
      <clipPath
         id="clipPath54"
         clipPathUnits="userSpaceOnUse">
        <path
           id="path168"
           d="m 483,669 15,0 0,17 -15,0 0,-17 z"
           inkscape:connector-curvature="0" />
      </clipPath>
      <clipPath
         id="clipPath55"
         clipPathUnits="userSpaceOnUse">
        <path
           id="path171"
           d="m 170,656 341,0 0,137 -341,0 0,-137 z"
           inkscape:connector-curvature="0" />
      </clipPath>
      <clipPath
         id="clipPath56"
         clipPathUnits="userSpaceOnUse">
        <path
           id="path174"
           d="m -1,603 443,0 0,190 -443,0 0,-190 z"
           inkscape:connector-curvature="0" />
      </clipPath>
      <clipPath
         id="clipPath57"
         clipPathUnits="userSpaceOnUse">
        <path
           id="path177"
           d="m 318,616 72,0 0,18 -72,0 0,-18 z"
           inkscape:connector-curvature="0" />
      </clipPath>
      <clipPath
         id="clipPath58"
         clipPathUnits="userSpaceOnUse">
        <path
           id="path180"
           d="m 397,622 9,0 0,18 -9,0 0,-18 z"
           inkscape:connector-curvature="0" />
      </clipPath>
      <clipPath
         id="clipPath59"
         clipPathUnits="userSpaceOnUse">
        <path
           id="path183"
           d="m 146,757 13,0 0,23 -13,0 0,-23 z"
           inkscape:connector-curvature="0" />
      </clipPath>
      <clipPath
         id="clipPath60"
         clipPathUnits="userSpaceOnUse">
        <path
           id="path186"
           d="m 411,634 18,0 0,15 -18,0 0,-15 z"
           inkscape:connector-curvature="0" />
      </clipPath>
      <clipPath
         id="clipPath61"
         clipPathUnits="userSpaceOnUse">
        <path
           id="path189"
           d="m 522,607 232,0 0,183 -232,0 0,-183 z"
           inkscape:connector-curvature="0" />
      </clipPath>
      <clipPath
         id="clipPath62"
         clipPathUnits="userSpaceOnUse">
        <path
           id="path192"
           d="m 567,623 64,0 0,18 -64,0 0,-18 z"
           inkscape:connector-curvature="0" />
      </clipPath>
      <clipPath
         id="clipPath63"
         clipPathUnits="userSpaceOnUse">
        <path
           id="path195"
           d="m 545,620 7,0 0,18 -7,0 0,-18 z"
           inkscape:connector-curvature="0" />
      </clipPath>
      <clipPath
         id="clipPath64"
         clipPathUnits="userSpaceOnUse">
        <path
           id="path198"
           d="m 657,754 13,0 0,23 -13,0 0,-23 z"
           inkscape:connector-curvature="0" />
      </clipPath>
      <clipPath
         id="clipPath65"
         clipPathUnits="userSpaceOnUse">
        <path
           id="path201"
           d="m 535,640 18,0 0,15 -18,0 0,-15 z"
           inkscape:connector-curvature="0" />
      </clipPath>
      <clipPath
         id="clipPath66"
         clipPathUnits="userSpaceOnUse">
        <path
           id="path204"
           d="m 177,639 279,0 0,154 -279,0 0,-154 z"
           inkscape:connector-curvature="0" />
      </clipPath>
      <clipPath
         id="clipPath67"
         clipPathUnits="userSpaceOnUse">
        <path
           id="path207"
           d="m 330,663 49,0 0,18 -49,0 0,-18 z"
           inkscape:connector-curvature="0" />
      </clipPath>
      <clipPath
         id="clipPath68"
         clipPathUnits="userSpaceOnUse">
        <path
           id="path210"
           d="m 390,665 20,0 0,18 -20,0 0,-18 z"
           inkscape:connector-curvature="0" />
      </clipPath>
      <clipPath
         id="clipPath69"
         clipPathUnits="userSpaceOnUse">
        <path
           id="path213"
           d="m 309,757 13,0 0,23 -13,0 0,-23 z"
           inkscape:connector-curvature="0" />
      </clipPath>
      <clipPath
         id="clipPath70"
         clipPathUnits="userSpaceOnUse">
        <path
           id="path216"
           d="m 411,652 18,0 0,15 -18,0 0,-15 z"
           inkscape:connector-curvature="0" />
      </clipPath>
      <clipPath
         id="clipPath71"
         clipPathUnits="userSpaceOnUse">
        <path
           id="path219"
           d="m 650,801 29,0 0,52 -29,0 0,-52 z"
           inkscape:connector-curvature="0" />
      </clipPath>
      <clipPath
         id="clipPath72"
         clipPathUnits="userSpaceOnUse">
        <path
           id="path222"
           d="m 332,656 178,0 0,137 -178,0 0,-137 z"
           inkscape:connector-curvature="0" />
      </clipPath>
      <clipPath
         id="clipPath73"
         clipPathUnits="userSpaceOnUse">
        <path
           id="path225"
           d="m 482,669 15,0 0,17 -15,0 0,-17 z"
           inkscape:connector-curvature="0" />
      </clipPath>
      <clipPath
         id="clipPath74"
         clipPathUnits="userSpaceOnUse">
        <path
           id="path228"
           d="m 469,656 184,0 0,134 -184,0 0,-134 z"
           inkscape:connector-curvature="0" />
      </clipPath>
    </defs>
  </defs>
  <rect
     x="39"
     y="863"
     clip-path="url(#clipPath4)"
     width="134"
     height="20"
     id="rect246"
     style="fill:#f4a460;stroke:none;font-family:Segoe UI"
     transform="translate(-38,-621.69434)" />
  <text
     font-size="13"
     x="42"
     y="880"
     clip-path="url(#clipPath5)"
     xml:space="preserve"
     id="text248"
     style="font-size:13px;stroke:none;font-family:Dialog"
     transform="translate(-38,-621.69434)">Grammar Metamodel</text>
  <line
     clip-path="url(#clipPath4)"
     x1="40"
     x2="40"
     y1="883"
     y2="863"
     id="line250"
     style="fill:none;stroke-width:2;stroke-linecap:butt;font-family:Segoe UI"
     transform="translate(-38,-621.69434)" />
  <line
     clip-path="url(#clipPath4)"
     x1="39"
     x2="173"
     y1="864"
     y2="864"
     id="line252"
     style="fill:none;stroke-width:2;stroke-linecap:butt;font-family:Segoe UI"
     transform="translate(-38,-621.69434)" />
  <line
     clip-path="url(#clipPath4)"
     x1="172"
     x2="172"
     y1="863"
     y2="883"
     id="line254"
     style="fill:none;stroke-width:2;stroke-linecap:butt;font-family:Segoe UI"
     transform="translate(-38,-621.69434)" />
  <rect
     x="39"
     y="883"
     clip-path="url(#clipPath6)"
     width="553"
     height="104"
     id="rect256"
     style="fill:#f4a460;stroke:none;font-family:Segoe UI"
     transform="translate(-38,-621.69434)" />
  <rect
     x="96"
     y="920"
     clip-path="url(#clipPath7)"
     width="100"
     height="40"
     id="rect258"
     style="fill:#c8e6ff;stroke:none;font-family:Segoe UI"
     transform="translate(-38,-621.69434)" />
  <text
     xml:space="preserve"
     x="105"
     y="936"
     clip-path="url(#clipPath8)"
     id="text262"
     style="font-size:13px;font-weight:bold;stroke:none"
     transform="translate(-38,-621.69434)">NonTerminal</text>
  <line
     clip-path="url(#clipPath9)"
     x1="98"
     x2="194"
     y1="938"
     y2="938"
     id="line266"
     style="fill:none;stroke-linecap:butt;font-family:Segoe UI"
     transform="translate(-38,-621.69434)" />
  <line
     clip-path="url(#clipPath10)"
     x1="98"
     x2="194"
     y1="948"
     y2="948"
     id="line268"
     style="fill:none;stroke-linecap:butt;font-family:Segoe UI"
     transform="translate(-38,-621.69434)" />
  <rect
     x="96"
     y="920"
     clip-path="url(#clipPath7)"
     width="99"
     height="39"
     id="rect270"
     style="fill:none;stroke-linecap:butt;font-family:Segoe UI"
     transform="translate(-38,-621.69434)" />
  <rect
     x="443"
     y="920"
     clip-path="url(#clipPath11)"
     width="100"
     height="40"
     id="rect272"
     style="fill:#c8e6ff;stroke:none;font-family:Segoe UI"
     transform="translate(-38,-621.69434)" />
  <text
     font-size="13"
     x="465"
     y="936"
     clip-path="url(#clipPath12)"
     font-weight="bold"
     xml:space="preserve"
     id="text274"
     style="font-size:13px;font-weight:bold;stroke:none;font-family:Dialog"
     transform="translate(-38,-621.69434)">Terminal</text>
  <line
     clip-path="url(#clipPath13)"
     x1="445"
     x2="541"
     y1="938"
     y2="938"
     id="line276"
     style="fill:none;stroke-linecap:butt;font-family:Segoe UI"
     transform="translate(-38,-621.69434)" />
  <line
     clip-path="url(#clipPath14)"
     x1="445"
     x2="541"
     y1="948"
     y2="948"
     id="line278"
     style="fill:none;stroke-linecap:butt;font-family:Segoe UI"
     transform="translate(-38,-621.69434)" />
  <rect
     x="443"
     y="920"
     clip-path="url(#clipPath11)"
     width="99"
     height="39"
     id="rect280"
     style="fill:none;stroke-linecap:butt;font-family:Segoe UI"
     transform="translate(-38,-621.69434)" />
  <rect
     x="276"
     y="920"
     clip-path="url(#clipPath15)"
     width="100"
     height="40"
     id="rect282"
     style="fill:#c8e6ff;stroke:none;font-family:Segoe UI"
     transform="translate(-38,-621.69434)" />
  <text
     font-size="13"
     x="294"
     y="936"
     clip-path="url(#clipPath16)"
     font-weight="bold"
     xml:space="preserve"
     id="text284"
     style="font-size:13px;font-weight:bold;stroke:none;font-family:Dialog"
     transform="translate(-38,-621.69434)">Sequence</text>
  <line
     clip-path="url(#clipPath17)"
     x1="278"
     x2="374"
     y1="938"
     y2="938"
     id="line286"
     style="fill:none;stroke-linecap:butt;font-family:Segoe UI"
     transform="translate(-38,-621.69434)" />
  <line
     clip-path="url(#clipPath18)"
     x1="278"
     x2="374"
     y1="948"
     y2="948"
     id="line288"
     style="fill:none;stroke-linecap:butt;font-family:Segoe UI"
     transform="translate(-38,-621.69434)" />
  <rect
     x="276"
     y="920"
     clip-path="url(#clipPath15)"
     width="99"
     height="39"
     id="rect290"
     style="fill:none;stroke-linecap:butt;font-family:Segoe UI"
     transform="translate(-38,-621.69434)" />
  <rect
     x="40"
     y="884"
     clip-path="url(#clipPath6)"
     width="551"
     height="102"
     id="rect292"
     style="fill:none;stroke-width:2;stroke-linecap:butt;font-family:Segoe UI"
     transform="translate(-38,-621.69434)" />
  <rect
     x="435"
     y="778"
     clip-path="url(#clipPath19)"
     width="114"
     height="40"
     id="rect294"
     style="fill:#c8e6ff;stroke:none;font-family:Segoe UI"
     transform="translate(-38,-621.69434)" />
  <text
     xml:space="preserve"
     x="437"
     y="794"
     clip-path="url(#clipPath20)"
     id="text298"
     style="font-size:13px;font-weight:bold;stroke:none"
     transform="translate(-38,-621.69434)">TerminalNotation</text>
  <line
     clip-path="url(#clipPath21)"
     x1="437"
     x2="547"
     y1="796"
     y2="796"
     id="line302"
     style="fill:none;stroke-linecap:butt;font-family:Segoe UI"
     transform="translate(-38,-621.69434)" />
  <line
     clip-path="url(#clipPath22)"
     x1="437"
     x2="547"
     y1="806"
     y2="806"
     id="line304"
     style="fill:none;stroke-linecap:butt;font-family:Segoe UI"
     transform="translate(-38,-621.69434)" />
  <rect
     x="435"
     y="778"
     clip-path="url(#clipPath19)"
     width="113"
     height="39"
     id="rect306"
     style="fill:none;stroke-linecap:butt;font-family:Segoe UI"
     transform="translate(-38,-621.69434)" />
  <rect
     x="71"
     y="778"
     clip-path="url(#clipPath23)"
     width="141"
     height="40"
     id="rect308"
     style="fill:#c8e6ff;stroke:none;font-family:Segoe UI"
     transform="translate(-38,-621.69434)" />
  <text
     font-size="13"
     x="74"
     y="794"
     clip-path="url(#clipPath24)"
     font-weight="bold"
     xml:space="preserve"
     id="text310"
     style="font-size:13px;font-weight:bold;stroke:none;font-family:Dialog"
     transform="translate(-38,-621.69434)">NonTerminalNotation</text>
  <line
     clip-path="url(#clipPath25)"
     x1="73"
     x2="210"
     y1="796"
     y2="796"
     id="line312"
     style="fill:none;stroke-linecap:butt;font-family:Segoe UI"
     transform="translate(-38,-621.69434)" />
  <line
     clip-path="url(#clipPath26)"
     x1="73"
     x2="210"
     y1="806"
     y2="806"
     id="line314"
     style="fill:none;stroke-linecap:butt;font-family:Segoe UI"
     transform="translate(-38,-621.69434)" />
  <rect
     x="71"
     y="778"
     clip-path="url(#clipPath23)"
     width="140"
     height="39"
     id="rect316"
     style="fill:none;stroke-linecap:butt;font-family:Segoe UI"
     transform="translate(-38,-621.69434)" />
  <rect
     x="427"
     y="630"
     clip-path="url(#clipPath27)"
     width="109"
     height="40"
     id="rect318"
     style="fill:#c8e6ff;stroke:none;font-family:Segoe UI"
     transform="translate(-38,-621.69434)" />
  <text
     xml:space="preserve"
     x="434"
     y="646"
     clip-path="url(#clipPath28)"
     id="text322"
     style="font-size:13px;font-style:italic;font-weight:bold;stroke:none"
     transform="translate(-38,-621.69434)">ProductionPart</text>
  <line
     clip-path="url(#clipPath29)"
     x1="429"
     x2="534"
     y1="648"
     y2="648"
     id="line326"
     style="fill:none;stroke-linecap:butt;font-family:Segoe UI"
     transform="translate(-38,-621.69434)" />
  <line
     clip-path="url(#clipPath30)"
     x1="429"
     x2="534"
     y1="658"
     y2="658"
     id="line328"
     style="fill:none;stroke-linecap:butt;font-family:Segoe UI"
     transform="translate(-38,-621.69434)" />
  <rect
     x="427"
     y="630"
     clip-path="url(#clipPath27)"
     width="108"
     height="39"
     id="rect330"
     style="fill:none;stroke-linecap:butt;font-family:Segoe UI"
     transform="translate(-38,-621.69434)" />
  <rect
     x="259"
     y="778"
     clip-path="url(#clipPath31)"
     width="133"
     height="40"
     id="rect332"
     style="fill:#c8e6ff;stroke:none;font-family:Segoe UI"
     transform="translate(-38,-621.69434)" />
  <text
     font-size="13"
     x="267"
     y="794"
     clip-path="url(#clipPath32)"
     font-weight="bold"
     xml:space="preserve"
     id="text334"
     style="font-size:13px;font-weight:bold;stroke:none;font-family:Dialog"
     transform="translate(-38,-621.69434)">SequenceNotation</text>
  <line
     clip-path="url(#clipPath33)"
     x1="261"
     x2="390"
     y1="796"
     y2="796"
     id="line336"
     style="fill:none;stroke-linecap:butt;font-family:Segoe UI"
     transform="translate(-38,-621.69434)" />
  <line
     clip-path="url(#clipPath34)"
     x1="261"
     x2="390"
     y1="806"
     y2="806"
     id="line338"
     style="fill:none;stroke-linecap:butt;font-family:Segoe UI"
     transform="translate(-38,-621.69434)" />
  <rect
     x="259"
     y="778"
     clip-path="url(#clipPath31)"
     width="132"
     height="39"
     id="rect340"
     style="fill:none;stroke-linecap:butt;font-family:Segoe UI"
     transform="translate(-38,-621.69434)" />
  <rect
     x="614"
     y="775"
     clip-path="url(#clipPath35)"
     width="100"
     height="40"
     id="rect342"
     style="fill:#c8e6ff;stroke:none;font-family:Segoe UI"
     transform="translate(-38,-621.69434)" />
  <text
     font-size="13"
     x="653"
     y="791"
     clip-path="url(#clipPath36)"
     font-weight="bold"
     xml:space="preserve"
     id="text344"
     style="font-size:13px;font-weight:bold;stroke:none;font-family:Dialog"
     transform="translate(-38,-621.69434)">List</text>
  <line
     clip-path="url(#clipPath37)"
     x1="616"
     x2="712"
     y1="793"
     y2="793"
     id="line346"
     style="fill:none;stroke-linecap:butt;font-family:Segoe UI"
     transform="translate(-38,-621.69434)" />
  <line
     clip-path="url(#clipPath38)"
     x1="616"
     x2="712"
     y1="803"
     y2="803"
     id="line348"
     style="fill:none;stroke-linecap:butt;font-family:Segoe UI"
     transform="translate(-38,-621.69434)" />
  <rect
     x="614"
     y="775"
     clip-path="url(#clipPath35)"
     width="99"
     height="39"
     id="rect350"
     style="fill:none;stroke-linecap:butt;font-family:Segoe UI"
     transform="translate(-38,-621.69434)" />
  <polygon
     clip-path="url(#clipPath39)"
     points="723,848 723,880 610,880 610,838 714,838 "
     id="polygon354"
     style="font-size:13px;fill:#ffc300;stroke:none"
     transform="translate(-38,-621.69434)" />
  <polygon
     clip-path="url(#clipPath39)"
     points="723,848 713,838 713,848 723,848 713,838 610,838 610,880 723,880 "
     id="polygon356"
     style="font-size:13px;fill:none;stroke:#000000;stroke-linecap:butt"
     transform="translate(-38,-621.69434)" />
  <text
     x="613"
     y="860"
     clip-path="url(#clipPath40)"
     xml:space="preserve"
     id="text358"
     style="font-size:13px;fill:#000000;stroke:none"
     transform="translate(-38,-621.69434)">Supports + and *</text>
  <text
     x="613"
     y="876"
     clip-path="url(#clipPath40)"
     xml:space="preserve"
     id="text360"
     style="font-size:13px;fill:#000000;stroke:none"
     transform="translate(-38,-621.69434)">multiplicities</text>
  <line
     clip-path="url(#clipPath41)"
     x1="185"
     x2="185"
     y1="818"
     y2="920"
     id="line366"
     style="fill:none;stroke-linecap:butt;font-family:Segoe UI"
     transform="translate(-38,-621.69434)" />
  <text
     font-size="13"
     x="96"
     y="913"
     clip-path="url(#clipPath42)"
     xml:space="preserve"
     id="text368"
     style="font-size:13px;stroke:none;font-family:Dialog"
     transform="translate(-38,-621.69434)">+nonTerminal</text>
  <text
     font-size="13"
     x="190"
     y="913"
     clip-path="url(#clipPath43)"
     xml:space="preserve"
     id="text370"
     style="font-size:13px;stroke:none;font-family:Dialog"
     transform="translate(-38,-621.69434)">1</text>
  <line
     clip-path="url(#clipPath44)"
     x1="180"
     x2="185"
     y1="910"
     y2="920"
     id="line372"
     style="fill:none;stroke-linecap:butt;font-family:Segoe UI"
     transform="translate(-38,-621.69434)" />
  <line
     clip-path="url(#clipPath44)"
     x1="185"
     x2="190"
     y1="920"
     y2="910"
     id="line374"
     style="fill:none;stroke-linecap:butt;font-family:Segoe UI"
     transform="translate(-38,-621.69434)" />
  <line
     clip-path="url(#clipPath45)"
     x1="487"
     x2="487"
     y1="818"
     y2="920"
     id="line376"
     style="fill:none;stroke-linecap:butt;font-family:Segoe UI"
     transform="translate(-38,-621.69434)" />
  <text
     font-size="13"
     x="497"
     y="908"
     clip-path="url(#clipPath46)"
     xml:space="preserve"
     id="text378"
     style="font-size:13px;stroke:none;font-family:Dialog"
     transform="translate(-38,-621.69434)">+terminal</text>
  <text
     font-size="13"
     x="470"
     y="908"
     clip-path="url(#clipPath47)"
     xml:space="preserve"
     id="text380"
     style="font-size:13px;stroke:none;font-family:Dialog"
     transform="translate(-38,-621.69434)">1</text>
  <line
     clip-path="url(#clipPath48)"
     x1="482"
     x2="487"
     y1="910"
     y2="920"
     id="line382"
     style="fill:none;stroke-linecap:butt;font-family:Segoe UI"
     transform="translate(-38,-621.69434)" />
  <line
     clip-path="url(#clipPath48)"
     x1="487"
     x2="492"
     y1="920"
     y2="910"
     id="line384"
     style="fill:none;stroke-linecap:butt;font-family:Segoe UI"
     transform="translate(-38,-621.69434)" />
  <line
     clip-path="url(#clipPath49)"
     x1="325"
     x2="325"
     y1="818"
     y2="920"
     id="line386"
     style="fill:none;stroke-linecap:butt;font-family:Segoe UI"
     transform="translate(-38,-621.69434)" />
  <text
     font-size="13"
     x="335"
     y="908"
     clip-path="url(#clipPath50)"
     xml:space="preserve"
     id="text388"
     style="font-size:13px;stroke:none;font-family:Dialog"
     transform="translate(-38,-621.69434)">+sequence</text>
  <text
     font-size="13"
     x="308"
     y="908"
     clip-path="url(#clipPath51)"
     xml:space="preserve"
     id="text390"
     style="font-size:13px;stroke:none;font-family:Dialog"
     transform="translate(-38,-621.69434)">1</text>
  <line
     clip-path="url(#clipPath52)"
     x1="320"
     x2="325"
     y1="910"
     y2="920"
     id="line392"
     style="fill:none;stroke-linecap:butt;font-family:Segoe UI"
     transform="translate(-38,-621.69434)" />
  <line
     clip-path="url(#clipPath52)"
     x1="325"
     x2="330"
     y1="920"
     y2="910"
     id="line394"
     style="fill:none;stroke-linecap:butt;font-family:Segoe UI"
     transform="translate(-38,-621.69434)" />
  <line
     clip-path="url(#clipPath53)"
     x1="490"
     x2="490"
     y1="778"
     y2="670"
     id="line396"
     style="fill:none;stroke-linecap:butt;font-family:Segoe UI"
     transform="translate(-38,-621.69434)" />
  <polygon
     clip-path="url(#clipPath54)"
     points="496,684 484,684 490,670 "
     id="polygon400"
     style="font-size:13px;fill:#ffffff;stroke:none"
     transform="translate(-38,-621.69434)" />
  <polygon
     clip-path="url(#clipPath54)"
     points="496,684 484,684 490,670 "
     id="polygon402"
     style="font-size:13px;fill:none;stroke:#000000;stroke-linecap:butt"
     transform="translate(-38,-621.69434)" />
  <line
     clip-path="url(#clipPath55)"
     x1="184"
     x2="184"
     y1="778"
     y2="718"
     id="line404"
     style="font-size:13px;fill:none;stroke:#000000;stroke-linecap:butt"
     transform="translate(-38,-621.69434)" />
  <line
     clip-path="url(#clipPath55)"
     x1="184"
     x2="490"
     y1="718"
     y2="718"
     id="line406"
     style="font-size:13px;fill:none;stroke:#000000;stroke-linecap:butt"
     transform="translate(-38,-621.69434)" />
  <line
     clip-path="url(#clipPath55)"
     x1="490"
     x2="490"
     y1="718"
     y2="670"
     id="line408"
     style="font-size:13px;fill:none;stroke:#000000;stroke-linecap:butt"
     transform="translate(-38,-621.69434)" />
  <polygon
     clip-path="url(#clipPath54)"
     points="496,684 484,684 490,670 "
     id="polygon410"
     style="font-size:13px;fill:#ffffff;stroke:none"
     transform="translate(-38,-621.69434)" />
  <polygon
     clip-path="url(#clipPath54)"
     points="496,684 484,684 490,670 "
     id="polygon412"
     style="font-size:13px;fill:none;stroke:#000000;stroke-linecap:butt"
     transform="translate(-38,-621.69434)" />
  <line
     clip-path="url(#clipPath56)"
     x1="152"
     x2="152"
     y1="778"
     y2="641"
     id="line414"
     style="font-size:13px;fill:none;stroke:#000000;stroke-linecap:butt"
     transform="translate(-38,-621.69434)" />
  <line
     clip-path="url(#clipPath56)"
     x1="152"
     x2="427"
     y1="641"
     y2="641"
     id="line416"
     style="font-size:13px;fill:none;stroke:#000000;stroke-linecap:butt"
     transform="translate(-38,-621.69434)" />
  <text
     x="319"
     y="631"
     clip-path="url(#clipPath57)"
     xml:space="preserve"
     id="text418"
     style="font-size:13px;fill:#000000;stroke:none"
     transform="translate(-38,-621.69434)">+production</text>
  <text
     x="398"
     y="637"
     clip-path="url(#clipPath58)"
     xml:space="preserve"
     id="text420"
     style="font-size:13px;fill:#000000;stroke:none"
     transform="translate(-38,-621.69434)">1</text>
  <polygon
     clip-path="url(#clipPath59)"
     points="157,768 152,778 147,768 152,758 "
     id="polygon422"
     style="font-size:13px;fill:#000000;stroke:none"
     transform="translate(-38,-621.69434)" />
  <polygon
     clip-path="url(#clipPath59)"
     points="157,768 152,778 147,768 152,758 "
     id="polygon424"
     style="font-size:13px;fill:none;stroke:#000000;stroke-linecap:butt"
     transform="translate(-38,-621.69434)" />
  <polygon
     clip-path="url(#clipPath60)"
     points="423,642 423,641 423,640 424,640 424,639 425,639 426,639 426,640 427,640 427,641 425,643 425,639 423,641 425,643 426,639 427,641 424,641 412,647 424,641 412,635 424,641 427,641 427,642 426,642 426,643 425,643 424,643 424,642 "
     id="polygon426"
     style="font-size:13px;fill:#000000;stroke:none"
     transform="translate(-38,-621.69434)" />
  <polygon
     clip-path="url(#clipPath60)"
     points="423,642 423,641 423,640 424,640 424,639 425,639 426,639 426,640 427,640 427,641 425,643 425,639 423,641 425,643 426,639 427,641 424,641 412,647 424,641 412,635 424,641 427,641 427,642 426,642 426,643 425,643 424,643 424,642 "
     id="polygon428"
     style="font-size:13px;fill:none;stroke:#000000;stroke-linecap:butt"
     transform="translate(-38,-621.69434)" />
  <line
     clip-path="url(#clipPath61)"
     x1="663"
     x2="663"
     y1="775"
     y2="647"
     id="line430"
     style="font-size:13px;fill:none;stroke:#000000;stroke-linecap:butt"
     transform="translate(-38,-621.69434)" />
  <line
     clip-path="url(#clipPath61)"
     x1="663"
     x2="536"
     y1="647"
     y2="647"
     id="line432"
     style="font-size:13px;fill:none;stroke:#000000;stroke-linecap:butt"
     transform="translate(-38,-621.69434)" />
  <text
     x="568"
     y="638"
     clip-path="url(#clipPath62)"
     xml:space="preserve"
     id="text434"
     style="font-size:13px;fill:#000000;stroke:none"
     transform="translate(-38,-621.69434)">+elements</text>
  <text
     x="546"
     y="635"
     clip-path="url(#clipPath63)"
     xml:space="preserve"
     id="text436"
     style="font-size:13px;fill:#000000;stroke:none"
     transform="translate(-38,-621.69434)">*</text>
  <polygon
     clip-path="url(#clipPath64)"
     points="668,765 663,775 658,765 663,755 "
     id="polygon438"
     style="font-size:13px;fill:#000000;stroke:none"
     transform="translate(-38,-621.69434)" />
  <polygon
     clip-path="url(#clipPath64)"
     points="668,765 663,775 658,765 663,755 "
     id="polygon440"
     style="font-size:13px;fill:none;stroke:#000000;stroke-linecap:butt"
     transform="translate(-38,-621.69434)" />
  <polygon
     clip-path="url(#clipPath65)"
     points="540,646 540,647 540,648 539,648 539,649 538,649 537,649 537,648 536,648 536,647 538,645 538,649 540,647 538,645 537,649 536,647 539,647 551,641 539,647 551,653 539,647 536,647 536,646 537,646 537,645 538,645 539,645 539,646 "
     id="polygon442"
     style="font-size:13px;fill:#000000;stroke:none"
     transform="translate(-38,-621.69434)" />
  <polygon
     clip-path="url(#clipPath65)"
     points="540,646 540,647 540,648 539,648 539,649 538,649 537,649 537,648 536,648 536,647 538,645 538,649 540,647 538,645 537,649 536,647 539,647 551,641 539,647 551,653 539,647 536,647 536,646 537,646 537,645 538,645 539,645 539,646 "
     id="polygon444"
     style="font-size:13px;fill:none;stroke:#000000;stroke-linecap:butt"
     transform="translate(-38,-621.69434)" />
  <line
     clip-path="url(#clipPath66)"
     x1="315"
     x2="315"
     y1="778"
     y2="659"
     id="line446"
     style="font-size:13px;fill:none;stroke:#000000;stroke-linecap:butt"
     transform="translate(-38,-621.69434)" />
  <line
     clip-path="url(#clipPath66)"
     x1="315"
     x2="427"
     y1="659"
     y2="659"
     id="line448"
     style="font-size:13px;fill:none;stroke:#000000;stroke-linecap:butt"
     transform="translate(-38,-621.69434)" />
  <text
     x="331"
     y="678"
     clip-path="url(#clipPath67)"
     xml:space="preserve"
     id="text450"
     style="font-size:13px;fill:#000000;stroke:none"
     transform="translate(-38,-621.69434)">+n-tupel</text>
  <text
     x="391"
     y="680"
     clip-path="url(#clipPath68)"
     xml:space="preserve"
     id="text452"
     style="font-size:13px;fill:#000000;stroke:none"
     transform="translate(-38,-621.69434)">2..*</text>
  <polygon
     clip-path="url(#clipPath69)"
     points="320,768 315,778 310,768 315,758 "
     id="polygon454"
     style="font-size:13px;fill:#000000;stroke:none"
     transform="translate(-38,-621.69434)" />
  <polygon
     clip-path="url(#clipPath69)"
     points="320,768 315,778 310,768 315,758 "
     id="polygon456"
     style="font-size:13px;fill:none;stroke:#000000;stroke-linecap:butt"
     transform="translate(-38,-621.69434)" />
  <polygon
     clip-path="url(#clipPath70)"
     points="423,660 423,659 423,658 424,658 424,657 425,657 426,657 426,658 427,658 427,659 425,661 425,657 423,659 425,661 426,657 427,659 424,659 412,665 424,659 412,653 424,659 427,659 427,660 426,660 426,661 425,661 424,661 424,660 "
     id="polygon458"
     style="font-size:13px;fill:#000000;stroke:none"
     transform="translate(-38,-621.69434)" />
  <polygon
     clip-path="url(#clipPath70)"
     points="423,660 423,659 423,658 424,658 424,657 425,657 426,657 426,658 427,658 427,659 425,661 425,657 423,659 425,661 426,657 427,659 424,659 412,665 424,659 412,653 424,659 427,659 427,660 426,660 426,661 425,661 424,661 424,660 "
     id="polygon460"
     style="font-size:13px;fill:none;stroke:#000000;stroke-linecap:butt"
     transform="translate(-38,-621.69434)" />
  <line
     clip-path="url(#clipPath71)"
     x1="664"
     x2="664"
     y1="838"
     y2="815"
     id="line462"
     style="font-size:13px;fill:none;stroke:#ffc300;stroke-linecap:butt;stroke-dasharray:8, 7"
     transform="translate(-38,-621.69434)" />
  <line
     clip-path="url(#clipPath72)"
     x1="346"
     x2="346"
     y1="778"
     y2="718"
     id="line464"
     style="font-size:13px;fill:none;stroke:#000000;stroke-linecap:butt"
     transform="translate(-38,-621.69434)" />
  <line
     clip-path="url(#clipPath72)"
     x1="346"
     x2="489"
     y1="718"
     y2="718"
     id="line466"
     style="font-size:13px;fill:none;stroke:#000000;stroke-linecap:butt"
     transform="translate(-38,-621.69434)" />
  <line
     clip-path="url(#clipPath72)"
     x1="489"
     x2="489"
     y1="718"
     y2="670"
     id="line468"
     style="font-size:13px;fill:none;stroke:#000000;stroke-linecap:butt"
     transform="translate(-38,-621.69434)" />
  <polygon
     clip-path="url(#clipPath73)"
     points="495,684 483,684 489,670 "
     id="polygon470"
     style="font-size:13px;fill:#ffffff;stroke:none"
     transform="translate(-38,-621.69434)" />
  <polygon
     clip-path="url(#clipPath73)"
     points="495,684 483,684 489,670 "
     id="polygon472"
     style="font-size:13px;fill:none;stroke:#000000;stroke-linecap:butt"
     transform="translate(-38,-621.69434)" />
  <line
     clip-path="url(#clipPath74)"
     x1="638"
     x2="638"
     y1="775"
     y2="717"
     id="line474"
     style="font-size:13px;fill:none;stroke:#000000;stroke-linecap:butt"
     transform="translate(-38,-621.69434)" />
  <line
     clip-path="url(#clipPath74)"
     x1="638"
     x2="489"
     y1="717"
     y2="717"
     id="line476"
     style="font-size:13px;fill:none;stroke:#000000;stroke-linecap:butt"
     transform="translate(-38,-621.69434)" />
  <line
     clip-path="url(#clipPath74)"
     x1="489"
     x2="489"
     y1="717"
     y2="670"
     id="line478"
     style="font-size:13px;fill:none;stroke:#000000;stroke-linecap:butt"
     transform="translate(-38,-621.69434)" />
  <polygon
     clip-path="url(#clipPath73)"
     points="495,684 483,684 489,670 "
     id="polygon480"
     style="font-size:13px;fill:#ffffff;stroke:none"
     transform="translate(-38,-621.69434)" />
  <polygon
     clip-path="url(#clipPath73)"
     points="495,684 483,684 489,670 "
     id="polygon482"
     style="font-size:13px;fill:none;stroke:#000000;stroke-linecap:butt"
     transform="translate(-38,-621.69434)" />
</svg>
