<?xml version="1.0" encoding="UTF-8" standalone="no"?>
<svg
   xmlns:dc="http://purl.org/dc/elements/1.1/"
   xmlns:cc="http://creativecommons.org/ns#"
   xmlns:rdf="http://www.w3.org/1999/02/22-rdf-syntax-ns#"
   xmlns:svg="http://www.w3.org/2000/svg"
   xmlns="http://www.w3.org/2000/svg"
   xmlns:sodipodi="http://sodipodi.sourceforge.net/DTD/sodipodi-0.dtd"
   xmlns:inkscape="http://www.inkscape.org/namespaces/inkscape"
   shape-rendering="auto"
   width="554"
   text-rendering="auto"
   color-interpolation="auto"
   color-rendering="auto"
   font-size="12"
   image-rendering="auto"
   stroke-miterlimit="10"
   font-style="normal"
   height="365.30566"
   font-weight="normal"
   id="svg2"
   version="1.1"
   inkscape:version="0.48.2 r9819"
   sodipodi:docname="Notation_ParseTree.svg"
   style="font-size:12px;font-style:normal;font-weight:normal;fill:#000000;fill-opacity:1;stroke:#000000;stroke-width:1;stroke-linecap:square;stroke-linejoin:miter;stroke-miterlimit:10;stroke-opacity:1;stroke-dasharray:none;stroke-dashoffset:0;font-family:Dialog">
  <metadata
     id="metadata304">
    <rdf:RDF>
      <cc:Work
         rdf:about="">
        <dc:format>image/svg+xml</dc:format>
        <dc:type
           rdf:resource="http://purl.org/dc/dcmitype/StillImage" />
      </cc:Work>
    </rdf:RDF>
  </metadata>
  <sodipodi:namedview
     pagecolor="#ffffff"
     bordercolor="#666666"
     borderopacity="1"
     objecttolerance="10"
     gridtolerance="10"
     guidetolerance="10"
     inkscape:pageopacity="0"
     inkscape:pageshadow="2"
     inkscape:window-width="1680"
     inkscape:window-height="1028"
     id="namedview302"
     showgrid="false"
     fit-margin-top="0"
     fit-margin-left="0"
     fit-margin-right="0"
     fit-margin-bottom="0"
     inkscape:zoom="0.82229965"
     inkscape:cx="186.46359"
     inkscape:cy="355.04343"
     inkscape:window-x="-8"
     inkscape:window-y="-8"
     inkscape:window-maximized="1"
     inkscape:current-layer="svg2" />
  <!--Generated by the Batik Graphics2D SVG Generator-->
  <defs
     id="genericDefs">
    <defs
       id="defs1">
      <clipPath
         id="clipPath1"
         clipPathUnits="userSpaceOnUse">
        <path
           id="path9"
           d="m -1,-1 802,0 0,1150 -802,0 0,-1150 z"
           inkscape:connector-curvature="0" />
      </clipPath>
      <clipPath
         id="clipPath2"
         clipPathUnits="userSpaceOnUse">
        <path
           id="path12"
           d="M 5,5 56,5 56,22 5,22 5,5 z"
           inkscape:connector-curvature="0" />
      </clipPath>
      <clipPath
         id="clipPath3"
         clipPathUnits="userSpaceOnUse">
        <path
           id="path15"
           d="m 56,5 90,0 0,18 -90,0 0,-18 z"
           inkscape:connector-curvature="0" />
      </clipPath>
      <clipPath
         id="clipPath4"
         clipPathUnits="userSpaceOnUse">
        <path
           id="path18"
           d="m 38,862 136,0 0,22 -136,0 0,-22 z"
           inkscape:connector-curvature="0" />
      </clipPath>
      <clipPath
         id="clipPath5"
         clipPathUnits="userSpaceOnUse">
        <path
           id="path21"
           d="m 41,865 129,0 0,18 -129,0 0,-18 z"
           inkscape:connector-curvature="0" />
      </clipPath>
      <clipPath
         id="clipPath6"
         clipPathUnits="userSpaceOnUse">
        <path
           id="path24"
           d="m 38,882 555,0 0,106 -555,0 0,-106 z"
           inkscape:connector-curvature="0" />
      </clipPath>
      <clipPath
         id="clipPath7"
         clipPathUnits="userSpaceOnUse">
        <path
           id="path27"
           d="m 95,919 102,0 0,42 -102,0 0,-42 z"
           inkscape:connector-curvature="0" />
      </clipPath>
      <clipPath
         id="clipPath8"
         clipPathUnits="userSpaceOnUse">
        <path
           id="path30"
           d="m 104,921 83,0 0,18 -83,0 0,-18 z"
           inkscape:connector-curvature="0" />
      </clipPath>
      <clipPath
         id="clipPath9"
         clipPathUnits="userSpaceOnUse">
        <path
           id="path33"
           d="m 97,937 98,0 0,12 -98,0 0,-12 z"
           inkscape:connector-curvature="0" />
      </clipPath>
      <clipPath
         id="clipPath10"
         clipPathUnits="userSpaceOnUse">
        <path
           id="path36"
           d="m 97,947 98,0 0,12 -98,0 0,-12 z"
           inkscape:connector-curvature="0" />
      </clipPath>
      <clipPath
         id="clipPath11"
         clipPathUnits="userSpaceOnUse">
        <path
           id="path39"
           d="m 442,919 102,0 0,42 -102,0 0,-42 z"
           inkscape:connector-curvature="0" />
      </clipPath>
      <clipPath
         id="clipPath12"
         clipPathUnits="userSpaceOnUse">
        <path
           id="path42"
           d="m 464,921 58,0 0,18 -58,0 0,-18 z"
           inkscape:connector-curvature="0" />
      </clipPath>
      <clipPath
         id="clipPath13"
         clipPathUnits="userSpaceOnUse">
        <path
           id="path45"
           d="m 444,937 98,0 0,12 -98,0 0,-12 z"
           inkscape:connector-curvature="0" />
      </clipPath>
      <clipPath
         id="clipPath14"
         clipPathUnits="userSpaceOnUse">
        <path
           id="path48"
           d="m 444,947 98,0 0,12 -98,0 0,-12 z"
           inkscape:connector-curvature="0" />
      </clipPath>
      <clipPath
         id="clipPath15"
         clipPathUnits="userSpaceOnUse">
        <path
           id="path51"
           d="m 434,777 116,0 0,42 -116,0 0,-42 z"
           inkscape:connector-curvature="0" />
      </clipPath>
      <clipPath
         id="clipPath16"
         clipPathUnits="userSpaceOnUse">
        <path
           id="path54"
           d="m 436,779 111,0 0,18 -111,0 0,-18 z"
           inkscape:connector-curvature="0" />
      </clipPath>
      <clipPath
         id="clipPath17"
         clipPathUnits="userSpaceOnUse">
        <path
           id="path57"
           d="m 436,795 112,0 0,12 -112,0 0,-12 z"
           inkscape:connector-curvature="0" />
      </clipPath>
      <clipPath
         id="clipPath18"
         clipPathUnits="userSpaceOnUse">
        <path
           id="path60"
           d="m 436,805 112,0 0,12 -112,0 0,-12 z"
           inkscape:connector-curvature="0" />
      </clipPath>
      <clipPath
         id="clipPath19"
         clipPathUnits="userSpaceOnUse">
        <path
           id="path63"
           d="m 70,777 143,0 0,42 -143,0 0,-42 z"
           inkscape:connector-curvature="0" />
      </clipPath>
      <clipPath
         id="clipPath20"
         clipPathUnits="userSpaceOnUse">
        <path
           id="path66"
           d="m 73,779 136,0 0,18 -136,0 0,-18 z"
           inkscape:connector-curvature="0" />
      </clipPath>
      <clipPath
         id="clipPath21"
         clipPathUnits="userSpaceOnUse">
        <path
           id="path69"
           d="m 72,795 139,0 0,12 -139,0 0,-12 z"
           inkscape:connector-curvature="0" />
      </clipPath>
      <clipPath
         id="clipPath22"
         clipPathUnits="userSpaceOnUse">
        <path
           id="path72"
           d="m 72,805 139,0 0,12 -139,0 0,-12 z"
           inkscape:connector-curvature="0" />
      </clipPath>
      <clipPath
         id="clipPath23"
         clipPathUnits="userSpaceOnUse">
        <path
           id="path75"
           d="m 426,629 111,0 0,42 -111,0 0,-42 z"
           inkscape:connector-curvature="0" />
      </clipPath>
      <clipPath
         id="clipPath24"
         clipPathUnits="userSpaceOnUse">
        <path
           id="path78"
           d="m 433,631 97,0 0,18 -97,0 0,-18 z"
           inkscape:connector-curvature="0" />
      </clipPath>
      <clipPath
         id="clipPath25"
         clipPathUnits="userSpaceOnUse">
        <path
           id="path81"
           d="m 428,647 107,0 0,12 -107,0 0,-12 z"
           inkscape:connector-curvature="0" />
      </clipPath>
      <clipPath
         id="clipPath26"
         clipPathUnits="userSpaceOnUse">
        <path
           id="path84"
           d="m 428,657 107,0 0,12 -107,0 0,-12 z"
           inkscape:connector-curvature="0" />
      </clipPath>
      <clipPath
         id="clipPath27"
         clipPathUnits="userSpaceOnUse">
        <path
           id="path87"
           d="m 261,809 146,0 0,60 -146,0 0,-60 z"
           inkscape:connector-curvature="0" />
      </clipPath>
      <clipPath
         id="clipPath28"
         clipPathUnits="userSpaceOnUse">
        <path
           id="path90"
           d="m 264,816 125,0 0,50 -125,0 0,-50 z"
           inkscape:connector-curvature="0" />
      </clipPath>
      <clipPath
         id="clipPath29"
         clipPathUnits="userSpaceOnUse">
        <path
           id="path93"
           d="m 38,804 1089,0 0,201 -1089,0 0,-201 z"
           inkscape:connector-curvature="0" />
      </clipPath>
      <clipPath
         id="clipPath30"
         clipPathUnits="userSpaceOnUse">
        <path
           id="path96"
           d="m 95,898 84,0 0,18 -84,0 0,-18 z"
           inkscape:connector-curvature="0" />
      </clipPath>
      <clipPath
         id="clipPath31"
         clipPathUnits="userSpaceOnUse">
        <path
           id="path99"
           d="m 189,898 9,0 0,18 -9,0 0,-18 z"
           inkscape:connector-curvature="0" />
      </clipPath>
      <clipPath
         id="clipPath32"
         clipPathUnits="userSpaceOnUse">
        <path
           id="path102"
           d="m 179,909 13,0 0,13 -13,0 0,-13 z"
           inkscape:connector-curvature="0" />
      </clipPath>
      <clipPath
         id="clipPath33"
         clipPathUnits="userSpaceOnUse">
        <path
           id="path105"
           d="m 179,804 386,0 0,131 -386,0 0,-131 z"
           inkscape:connector-curvature="0" />
      </clipPath>
      <clipPath
         id="clipPath34"
         clipPathUnits="userSpaceOnUse">
        <path
           id="path108"
           d="m 496,893 56,0 0,18 -56,0 0,-18 z"
           inkscape:connector-curvature="0" />
      </clipPath>
      <clipPath
         id="clipPath35"
         clipPathUnits="userSpaceOnUse">
        <path
           id="path111"
           d="m 469,893 9,0 0,18 -9,0 0,-18 z"
           inkscape:connector-curvature="0" />
      </clipPath>
      <clipPath
         id="clipPath36"
         clipPathUnits="userSpaceOnUse">
        <path
           id="path114"
           d="m 481,909 13,0 0,13 -13,0 0,-13 z"
           inkscape:connector-curvature="0" />
      </clipPath>
      <clipPath
         id="clipPath37"
         clipPathUnits="userSpaceOnUse">
        <path
           id="path117"
           d="m 470,656 41,0 0,137 -41,0 0,-137 z"
           inkscape:connector-curvature="0" />
      </clipPath>
      <clipPath
         id="clipPath38"
         clipPathUnits="userSpaceOnUse">
        <path
           id="path120"
           d="m 483,669 15,0 0,17 -15,0 0,-17 z"
           inkscape:connector-curvature="0" />
      </clipPath>
      <clipPath
         id="clipPath39"
         clipPathUnits="userSpaceOnUse">
        <path
           id="path123"
           d="m 170,656 341,0 0,137 -341,0 0,-137 z"
           inkscape:connector-curvature="0" />
      </clipPath>
      <clipPath
         id="clipPath40"
         clipPathUnits="userSpaceOnUse">
        <path
           id="path126"
           d="m -1,603 443,0 0,190 -443,0 0,-190 z"
           inkscape:connector-curvature="0" />
      </clipPath>
      <clipPath
         id="clipPath41"
         clipPathUnits="userSpaceOnUse">
        <path
           id="path129"
           d="m 343,616 47,0 0,18 -47,0 0,-18 z"
           inkscape:connector-curvature="0" />
      </clipPath>
      <clipPath
         id="clipPath42"
         clipPathUnits="userSpaceOnUse">
        <path
           id="path132"
           d="m 388,647 20,0 0,18 -20,0 0,-18 z"
           inkscape:connector-curvature="0" />
      </clipPath>
      <clipPath
         id="clipPath43"
         clipPathUnits="userSpaceOnUse">
        <path
           id="path135"
           d="m 146,757 13,0 0,23 -13,0 0,-23 z"
           inkscape:connector-curvature="0" />
      </clipPath>
      <clipPath
         id="clipPath44"
         clipPathUnits="userSpaceOnUse">
        <path
           id="path138"
           d="m 411,634 18,0 0,15 -18,0 0,-15 z"
           inkscape:connector-curvature="0" />
      </clipPath>
    </defs>
  </defs>
  <rect
     x="39"
     y="863"
     clip-path="url(#clipPath4)"
     width="134"
     height="20"
     id="rect156"
     style="fill:#f4a460;stroke:none;font-family:Segoe UI"
     transform="translate(-38,-621.69434)" />
  <text
     font-size="13"
     x="42"
     y="880"
     clip-path="url(#clipPath5)"
     xml:space="preserve"
     id="text158"
     style="font-size:13px;stroke:none;font-family:Dialog"
     transform="translate(-38,-621.69434)">Grammar Metamodel</text>
  <line
     clip-path="url(#clipPath4)"
     x1="40"
     x2="40"
     y1="883"
     y2="863"
     id="line160"
     style="fill:none;stroke-width:2;stroke-linecap:butt;font-family:Segoe UI"
     transform="translate(-38,-621.69434)" />
  <line
     clip-path="url(#clipPath4)"
     x1="39"
     x2="173"
     y1="864"
     y2="864"
     id="line162"
     style="fill:none;stroke-width:2;stroke-linecap:butt;font-family:Segoe UI"
     transform="translate(-38,-621.69434)" />
  <line
     clip-path="url(#clipPath4)"
     x1="172"
     x2="172"
     y1="863"
     y2="883"
     id="line164"
     style="fill:none;stroke-width:2;stroke-linecap:butt;font-family:Segoe UI"
     transform="translate(-38,-621.69434)" />
  <rect
     x="39"
     y="883"
     clip-path="url(#clipPath6)"
     width="553"
     height="104"
     id="rect166"
     style="fill:#f4a460;stroke:none;font-family:Segoe UI"
     transform="translate(-38,-621.69434)" />
  <rect
     x="96"
     y="920"
     clip-path="url(#clipPath7)"
     width="100"
     height="40"
     id="rect168"
     style="fill:#c8e6ff;stroke:none;font-family:Segoe UI"
     transform="translate(-38,-621.69434)" />
  <g
     style="font-size:13px;font-weight:bold;stroke-width:2;stroke-linecap:butt"
     id="g170"
     font-weight="bold"
     font-size="13"
     transform="translate(-38,-621.69434)">
    <text
       style="stroke:none"
       id="text172"
       clip-path="url(#clipPath8)"
       y="936"
       x="105"
       xml:space="preserve">NonTerminal</text>
  </g>
  <g
     style="stroke-linecap:butt;font-family:Segoe UI"
     id="g174"
     transform="translate(-38,-621.69434)">
    <line
       style="fill:none"
       id="line176"
       y2="938"
       y1="938"
       x2="194"
       x1="98"
       clip-path="url(#clipPath9)" />
    <line
       style="fill:none"
       id="line178"
       y2="948"
       y1="948"
       x2="194"
       x1="98"
       clip-path="url(#clipPath10)" />
    <rect
       style="fill:none"
       id="rect180"
       height="39"
       width="99"
       clip-path="url(#clipPath7)"
       y="920"
       x="96" />
    <rect
       style="fill:#c8e6ff;stroke:none"
       id="rect182"
       height="40"
       width="100"
       clip-path="url(#clipPath11)"
       y="920"
       x="443" />
    <text
       style="font-size:13px;font-weight:bold;stroke:none;font-family:Dialog"
       id="text184"
       xml:space="preserve"
       font-weight="bold"
       clip-path="url(#clipPath12)"
       y="936"
       x="465"
       font-size="13">Terminal</text>
    <line
       style="fill:none"
       id="line186"
       y2="938"
       y1="938"
       x2="541"
       x1="445"
       clip-path="url(#clipPath13)" />
    <line
       style="fill:none"
       id="line188"
       y2="948"
       y1="948"
       x2="541"
       x1="445"
       clip-path="url(#clipPath14)" />
    <rect
       style="fill:none"
       id="rect190"
       height="39"
       width="99"
       clip-path="url(#clipPath11)"
       y="920"
       x="443" />
    <rect
       style="fill:none;stroke-width:2"
       id="rect192"
       height="102"
       width="551"
       clip-path="url(#clipPath6)"
       y="884"
       x="40" />
    <rect
       style="fill:#c8e6ff;stroke:none"
       id="rect194"
       height="40"
       width="114"
       clip-path="url(#clipPath15)"
       y="778"
       x="435" />
  </g>
  <g
     style="font-size:13px;font-weight:bold;stroke-width:2;stroke-linecap:butt"
     id="g196"
     font-weight="bold"
     font-size="13"
     transform="translate(-38,-621.69434)">
    <text
       style="stroke:none"
       id="text198"
       clip-path="url(#clipPath16)"
       y="794"
       x="437"
       xml:space="preserve">TerminalNotation</text>
  </g>
  <g
     style="stroke-linecap:butt;font-family:Segoe UI"
     id="g200"
     transform="translate(-38,-621.69434)">
    <line
       style="fill:none"
       id="line202"
       y2="796"
       y1="796"
       x2="547"
       x1="437"
       clip-path="url(#clipPath17)" />
    <line
       style="fill:none"
       id="line204"
       y2="806"
       y1="806"
       x2="547"
       x1="437"
       clip-path="url(#clipPath18)" />
    <rect
       style="fill:none"
       id="rect206"
       height="39"
       width="113"
       clip-path="url(#clipPath15)"
       y="778"
       x="435" />
    <rect
       style="fill:#c8e6ff;stroke:none"
       id="rect208"
       height="40"
       width="141"
       clip-path="url(#clipPath19)"
       y="778"
       x="71" />
    <text
       style="font-size:13px;font-weight:bold;stroke:none;font-family:Dialog"
       id="text210"
       xml:space="preserve"
       font-weight="bold"
       clip-path="url(#clipPath20)"
       y="794"
       x="74"
       font-size="13">NonTerminalNotation</text>
    <line
       style="fill:none"
       id="line212"
       y2="796"
       y1="796"
       x2="210"
       x1="73"
       clip-path="url(#clipPath21)" />
    <line
       style="fill:none"
       id="line214"
       y2="806"
       y1="806"
       x2="210"
       x1="73"
       clip-path="url(#clipPath22)" />
    <rect
       style="fill:none"
       id="rect216"
       height="39"
       width="140"
       clip-path="url(#clipPath19)"
       y="778"
       x="71" />
    <rect
       style="fill:#c8e6ff;stroke:none"
       id="rect218"
       height="40"
       width="109"
       clip-path="url(#clipPath23)"
       y="630"
       x="427" />
  </g>
  <g
     style="font-size:13px;font-style:italic;font-weight:bold;stroke-linecap:butt"
     id="g220"
     font-weight="bold"
     font-size="13"
     font-style="italic"
     transform="translate(-38,-621.69434)">
    <text
       style="stroke:none"
       id="text222"
       clip-path="url(#clipPath24)"
       y="646"
       x="434"
       xml:space="preserve">ProductionPart</text>
  </g>
  <g
     style="stroke-linecap:butt;font-family:Segoe UI"
     id="g224"
     transform="translate(-38,-621.69434)">
    <line
       style="fill:none"
       id="line226"
       y2="648"
       y1="648"
       x2="534"
       x1="429"
       clip-path="url(#clipPath25)" />
    <line
       style="fill:none"
       id="line228"
       y2="658"
       y1="658"
       x2="534"
       x1="429"
       clip-path="url(#clipPath26)" />
    <rect
       style="fill:none"
       id="rect230"
       height="39"
       width="108"
       clip-path="url(#clipPath23)"
       y="630"
       x="427" />
  </g>
  <g
     style="font-size:13px;fill:#ffc300;stroke:#ffc300;stroke-linecap:butt"
     id="g232"
     font-size="13"
     transform="translate(-38,-621.69434)">
    <polygon
       style="stroke:none"
       id="polygon234"
       points="262,810 396,810 405,820 405,867 262,867 "
       clip-path="url(#clipPath27)" />
    <polygon
       style="fill:none;stroke:#000000"
       id="polygon236"
       points="262,867 405,867 405,820 395,810 395,820 405,820 395,810 262,810 "
       clip-path="url(#clipPath27)" />
    <text
       style="fill:#000000;stroke:none"
       id="text238"
       xml:space="preserve"
       clip-path="url(#clipPath28)"
       y="831"
       x="265">Grammar references</text>
    <text
       style="fill:#000000;stroke:none"
       id="text240"
       xml:space="preserve"
       clip-path="url(#clipPath28)"
       y="847"
       x="265">'type' the tree</text>
    <text
       style="fill:#000000;stroke:none"
       id="text242"
       xml:space="preserve"
       clip-path="url(#clipPath28)"
       y="863"
       x="265">interchangeable</text>
  </g>
  <line
     clip-path="url(#clipPath29)"
     x1="185"
     x2="185"
     y1="818"
     y2="920"
     id="line248"
     style="fill:none;stroke-linecap:butt;font-family:Segoe UI"
     transform="translate(-38,-621.69434)" />
  <text
     font-size="13"
     x="96"
     y="913"
     clip-path="url(#clipPath30)"
     xml:space="preserve"
     id="text250"
     style="font-size:13px;stroke:none;font-family:Dialog"
     transform="translate(-38,-621.69434)">+nonTerminal</text>
  <text
     font-size="13"
     x="190"
     y="913"
     clip-path="url(#clipPath31)"
     xml:space="preserve"
     id="text252"
     style="font-size:13px;stroke:none;font-family:Dialog"
     transform="translate(-38,-621.69434)">1</text>
  <line
     clip-path="url(#clipPath32)"
     x1="180"
     x2="185"
     y1="910"
     y2="920"
     id="line254"
     style="fill:none;stroke-linecap:butt;font-family:Segoe UI"
     transform="translate(-38,-621.69434)" />
  <line
     clip-path="url(#clipPath32)"
     x1="185"
     x2="190"
     y1="920"
     y2="910"
     id="line256"
     style="fill:none;stroke-linecap:butt;font-family:Segoe UI"
     transform="translate(-38,-621.69434)" />
  <line
     clip-path="url(#clipPath33)"
     x1="487"
     x2="487"
     y1="818"
     y2="920"
     id="line258"
     style="fill:none;stroke-linecap:butt;font-family:Segoe UI"
     transform="translate(-38,-621.69434)" />
  <text
     font-size="13"
     x="497"
     y="908"
     clip-path="url(#clipPath34)"
     xml:space="preserve"
     id="text260"
     style="font-size:13px;stroke:none;font-family:Dialog"
     transform="translate(-38,-621.69434)">+terminal</text>
  <text
     font-size="13"
     x="470"
     y="908"
     clip-path="url(#clipPath35)"
     xml:space="preserve"
     id="text262"
     style="font-size:13px;stroke:none;font-family:Dialog"
     transform="translate(-38,-621.69434)">1</text>
  <line
     clip-path="url(#clipPath36)"
     x1="482"
     x2="487"
     y1="910"
     y2="920"
     id="line264"
     style="fill:none;stroke-linecap:butt;font-family:Segoe UI"
     transform="translate(-38,-621.69434)" />
  <line
     clip-path="url(#clipPath36)"
     x1="487"
     x2="492"
     y1="920"
     y2="910"
     id="line266"
     style="fill:none;stroke-linecap:butt;font-family:Segoe UI"
     transform="translate(-38,-621.69434)" />
  <line
     clip-path="url(#clipPath37)"
     x1="490"
     x2="490"
     y1="778"
     y2="670"
     id="line268"
     style="fill:none;stroke-linecap:butt;font-family:Segoe UI"
     transform="translate(-38,-621.69434)" />
  <g
     style="font-size:13px;fill:#ffffff;stroke:#ffffff;stroke-linecap:butt"
     id="g270"
     font-size="13"
     transform="translate(-38,-621.69434)">
    <polygon
       style="stroke:none"
       id="polygon272"
       points="484,684 490,670 496,684 "
       clip-path="url(#clipPath38)" />
    <polygon
       style="fill:none;stroke:#000000"
       id="polygon274"
       points="484,684 490,670 496,684 "
       clip-path="url(#clipPath38)" />
    <line
       style="fill:none;stroke:#000000"
       id="line276"
       y2="718"
       y1="778"
       x2="184"
       x1="184"
       clip-path="url(#clipPath39)" />
    <line
       style="fill:none;stroke:#000000"
       id="line278"
       y2="718"
       y1="718"
       x2="490"
       x1="184"
       clip-path="url(#clipPath39)" />
    <line
       style="fill:none;stroke:#000000"
       id="line280"
       y2="670"
       y1="718"
       x2="490"
       x1="490"
       clip-path="url(#clipPath39)" />
    <polygon
       style="stroke:none"
       id="polygon282"
       points="484,684 490,670 496,684 "
       clip-path="url(#clipPath38)" />
    <polygon
       style="fill:none;stroke:#000000"
       id="polygon284"
       points="484,684 490,670 496,684 "
       clip-path="url(#clipPath38)" />
    <line
       style="fill:none;stroke:#000000"
       id="line286"
       y2="641"
       y1="778"
       x2="152"
       x1="152"
       clip-path="url(#clipPath40)" />
    <line
       style="fill:none;stroke:#000000"
       id="line288"
       y2="641"
       y1="641"
       x2="427"
       x1="152"
       clip-path="url(#clipPath40)" />
    <text
       style="fill:#000000;stroke:none"
       id="text290"
       xml:space="preserve"
       clip-path="url(#clipPath41)"
       y="631"
       x="344">+nodes</text>
    <text
       style="fill:#000000;stroke:none"
       id="text292"
       xml:space="preserve"
       clip-path="url(#clipPath42)"
       y="662"
       x="389">1..*</text>
    <polygon
       style="fill:#000000;stroke:none"
       id="polygon294"
       points="147,768 152,758 157,768 152,778 "
       clip-path="url(#clipPath43)" />
    <polygon
       style="fill:none;stroke:#000000"
       id="polygon296"
       points="147,768 152,758 157,768 152,778 "
       clip-path="url(#clipPath43)" />
    <polygon
       style="fill:#000000;stroke:none"
       id="polygon298"
       points="424,643 424,642 423,642 423,641 423,640 424,640 424,639 425,639 426,639 426,640 427,640 427,641 425,643 425,639 423,641 425,643 426,639 427,641 424,641 412,647 424,641 412,635 424,641 427,641 427,642 426,642 426,643 425,643 "
       clip-path="url(#clipPath44)" />
    <polygon
       style="fill:none;stroke:#000000"
       id="polygon300"
       points="424,643 424,642 423,642 423,641 423,640 424,640 424,639 425,639 426,639 426,640 427,640 427,641 425,643 425,639 423,641 425,643 426,639 427,641 424,641 412,647 424,641 412,635 424,641 427,641 427,642 426,642 426,643 425,643 "
       clip-path="url(#clipPath44)" />
  </g>
</svg>
